<svg version="1.1" id="Layer_1" xmlns="http://www.w3.org/2000/svg" xmlns:xlink="http://www.w3.org/1999/xlink" x="0px" y="0px"
	 width="100%" viewBox="0 0 512 512" enable-background="new 0 0 512 512" xml:space="preserve">
<path fill="#010101" opacity="1.000000" stroke="none" 
	d="
M296.000000,513.000000 
	C197.357285,513.000000 99.214561,513.000000 1.035923,513.000000 
	C1.035923,342.398926 1.035923,171.797836 1.035923,1.098378 
	C171.559402,1.098378 342.118866,1.098378 512.839172,1.098378 
	C512.839172,171.666550 512.839172,342.333252 512.839172,513.000000 
	C440.797821,513.000000 368.648895,513.000000 296.000000,513.000000 
M106.903175,369.419952 
	C106.613480,369.253326 106.323784,369.086700 105.793587,368.335541 
	C104.682762,367.470001 103.571938,366.604462 102.337318,365.711060 
	C102.337318,365.711060 102.323593,365.584900 102.411438,364.919098 
	C101.318512,363.833740 100.225586,362.748383 98.890961,361.075897 
	C98.030113,360.184906 97.169258,359.293884 96.105209,357.785217 
	C95.113693,356.158478 94.122177,354.531708 92.944695,352.599884 
	C94.670082,352.205933 95.759399,351.957214 97.147758,351.640228 
	C87.219086,344.239471 85.897842,341.706421 72.336342,304.603912 
	C69.029556,305.161072 67.674789,306.969513 68.939835,310.194122 
	C70.624969,314.489563 72.547485,318.691345 74.266357,322.974152 
	C80.525185,338.568939 87.112114,354.046143 92.846344,369.832489 
	C96.792007,380.694916 101.484413,390.873169 110.142632,399.557404 
	C110.648643,399.564270 111.154655,399.571167 111.660667,399.578033 
	C111.466789,399.377686 111.272903,399.177307 111.120071,398.145172 
	C108.533501,388.699707 105.946930,379.254242 103.474449,370.225433 
	C103.425468,370.203522 104.277122,370.584381 105.405457,371.542542 
	C105.915749,371.915558 106.426041,372.288574 107.891563,372.753632 
	C107.602280,371.809875 107.312988,370.866119 106.903175,369.419952 
M415.864807,134.501556 
	C415.937744,134.663940 416.010712,134.826324 415.967133,135.554779 
	C416.118774,136.086929 416.270416,136.619095 416.636658,137.943710 
	C418.942322,145.330002 421.247986,152.716293 423.759399,160.761765 
	C422.394836,160.069962 421.478485,159.605392 420.118713,158.563293 
	C419.161072,157.765472 418.203430,156.967651 417.245789,156.169815 
	C416.897736,156.560928 416.549713,156.952026 416.201660,157.343124 
	C417.221680,158.415115 418.241669,159.487091 419.641693,161.044312 
	C420.404724,161.705154 421.167725,162.365997 422.167114,163.638504 
	C423.506561,164.650238 424.846039,165.661987 426.282990,166.784958 
	C426.282990,166.784958 426.436340,166.936707 426.429626,167.015594 
	C426.429626,167.015594 426.402344,167.089890 426.461792,167.906113 
	C428.252563,169.727951 430.043335,171.549774 431.980774,173.935455 
	C432.619110,174.634735 433.257446,175.334015 434.101440,176.839859 
	C434.234955,177.613434 434.368469,178.386993 433.692841,179.228912 
	C432.572998,179.228912 431.453125,179.228912 429.394257,179.228912 
	C431.840973,180.601013 433.359680,181.452713 435.221558,182.860168 
	C437.165710,185.098114 439.731262,187.043549 440.946350,189.624725 
	C446.177826,200.737839 450.993347,212.046356 456.024658,223.254852 
	C456.499329,224.312256 457.423828,225.167709 458.139526,226.116913 
	C459.095490,224.957352 460.725922,223.860886 460.841736,222.622742 
	C460.996704,220.966263 460.153839,219.120865 459.425293,217.497635 
	C458.002502,214.327728 456.422089,211.223831 454.801117,208.148376 
	C446.494751,192.388794 438.864532,176.394653 433.821533,159.180115 
	C431.166351,150.116470 426.231964,141.947449 419.084503,134.778885 
	C418.574341,134.349686 418.064178,133.920471 417.218628,133.090424 
	C416.684113,132.905060 416.149567,132.719696 415.615082,132.534348 
	C415.751953,133.020309 415.888824,133.506287 415.864807,134.501556 
M169.485321,417.167114 
	C169.991623,417.367462 170.497940,417.567780 171.694641,418.068817 
	C190.734604,425.773529 220.140884,420.379944 231.645554,407.072845 
	C225.769043,401.158356 208.946960,400.089203 196.322495,404.906647 
	C195.881042,404.993134 195.439606,405.079590 194.252014,405.058075 
	C191.835693,405.769073 189.419388,406.480103 186.195404,407.093445 
	C182.795959,407.802917 179.396500,408.512390 175.171494,409.177582 
	C171.447937,409.459595 167.724365,409.741638 163.380997,409.770691 
	C162.942703,409.779022 162.504410,409.787323 161.381805,409.365967 
	C158.686050,409.171906 155.990295,408.977875 152.361038,408.716644 
	C155.084534,411.084229 157.038040,412.782440 158.744781,414.733276 
	C158.640091,414.801971 158.535385,414.870636 158.430679,414.939331 
	C158.618820,415.130341 158.806946,415.321350 158.354965,415.941711 
	C158.541214,416.305847 158.727463,416.669983 159.136002,417.614044 
	C159.747482,418.429260 160.358978,419.244507 161.026154,420.777313 
	C162.670868,423.985168 164.229599,427.240692 165.975571,430.392456 
	C172.603958,442.357849 180.950546,452.397552 195.481766,456.167358 
	C196.032303,456.188507 196.582840,456.209656 197.133377,456.230804 
	C196.778809,455.437256 196.424255,454.643677 195.902435,453.200867 
	C187.999023,443.669403 180.188156,434.058533 172.125000,424.664185 
	C170.185928,422.404999 167.409683,420.864349 164.800858,418.312256 
	C165.202240,417.819214 165.603622,417.326172 166.505524,416.978668 
	C166.669586,416.921478 166.833649,416.864288 167.506287,416.931091 
	C167.675919,416.890259 167.845566,416.849426 168.489731,416.982544 
	C168.655167,416.950623 168.820602,416.918732 169.485321,417.167114 
M214.000000,443.000000 
	C214.000000,443.000000 214.009354,442.994934 213.766922,442.329041 
	C211.843353,441.629272 209.919785,440.929504 207.330811,439.852234 
	C207.345810,439.242462 207.316406,438.105560 207.382278,438.100037 
	C209.036545,437.960724 210.715073,437.778900 212.361176,437.923950 
	C231.767761,439.634125 248.315430,432.288330 263.908661,421.809509 
	C264.813080,421.201721 266.026398,421.053650 267.095947,420.691620 
	C266.581177,419.808014 266.066437,418.924408 265.551666,418.040771 
	C257.379242,418.854340 249.066238,418.989441 241.068604,420.646576 
	C230.118607,422.915405 219.468933,426.599854 208.567596,429.152557 
	C203.645844,430.305084 198.427460,430.190857 193.343658,430.651337 
	C195.236801,432.421326 197.956436,432.680786 199.487045,434.165833 
	C201.675400,436.288971 202.766464,439.492523 204.723358,441.913605 
	C213.216248,452.420929 222.189880,462.399200 235.486374,467.050659 
	C238.406296,468.072083 241.328812,469.085999 244.250137,470.103394 
	C244.639603,469.557251 245.029068,469.011078 245.418518,468.464905 
	C240.569672,461.641022 235.720810,454.817139 230.939285,447.397339 
	C230.623581,447.232361 230.307877,447.067413 229.348785,446.399933 
	C224.899979,445.694733 220.451187,444.989532 215.487015,443.969025 
	C214.993118,443.642761 214.499207,443.316528 214.000000,443.000000 
M131.798325,295.098969 
	C132.451035,297.669739 133.103729,300.240479 134.123764,304.257996 
	C134.123764,299.732452 134.123764,296.603149 134.780823,293.510590 
	C136.949738,292.110382 138.971848,290.354736 141.318741,289.385406 
	C145.919022,287.485443 148.183853,289.203064 148.137436,294.242279 
	C148.116043,296.566223 147.871124,298.889130 147.699722,301.210449 
	C147.188934,308.128021 147.420425,315.560272 137.529480,316.089844 
	C137.425171,316.095428 137.349670,316.638702 137.154465,317.280060 
	C145.516403,317.280060 153.754303,317.280060 161.992188,317.280060 
	C162.062286,316.932037 162.132385,316.584015 162.202484,316.235992 
	C158.765991,315.001251 155.329498,313.766541 152.515930,312.755615 
	C152.515930,309.888031 152.648773,307.682922 152.480728,305.501007 
	C152.290848,303.035583 151.486557,300.578430 151.575745,298.140564 
	C151.685104,295.151489 152.443451,292.186157 152.921219,289.210571 
	C155.725983,289.798126 158.532715,290.376740 161.332794,290.985901 
	C161.643448,291.053528 161.916153,291.295624 162.102753,292.262451 
	C162.814560,299.509674 166.213058,294.153961 169.176529,294.286438 
	C168.039398,293.072083 167.502563,292.498779 167.049530,291.196228 
	C167.275726,289.722015 167.501923,288.247833 167.728119,286.773621 
	C164.129333,290.783112 152.599411,287.365570 149.570557,281.549896 
	C148.185593,288.931946 140.790710,285.907715 136.744568,288.769775 
	C136.012070,289.287872 133.849670,287.784546 131.657730,286.952698 
	C131.849792,288.531891 132.056778,290.233643 131.578522,292.217590 
	C131.387161,293.146362 131.195816,294.075134 130.664551,295.036469 
	C130.775543,295.023285 130.886536,295.010101 131.798325,295.098969 
M271.004120,88.042999 
	C272.952972,87.999939 274.965332,88.222893 276.818909,87.780533 
	C277.542114,87.607933 277.908081,85.938499 278.557983,84.322418 
	C265.066711,68.180450 245.556946,62.285385 237.094650,68.088142 
	C248.030746,75.424515 259.697906,80.850182 272.748108,84.158775 
	C271.906860,85.522240 271.065582,86.885712 269.944916,88.119110 
	C269.853973,88.127136 269.763031,88.135170 269.672089,88.143188 
	C269.832947,88.154724 269.993805,88.166260 271.004120,88.042999 
M171.681351,306.246490 
	C167.788101,306.154633 163.894867,306.062744 160.092346,305.227051 
	C160.326828,303.717438 160.561295,302.207794 160.795776,300.698181 
	C160.195938,300.651093 159.596100,300.604034 158.996262,300.556946 
	C158.996262,302.344666 158.996262,304.132385 158.369965,306.130585 
	C158.003372,306.634949 157.210648,307.309296 157.333908,307.618256 
	C159.284378,312.507507 170.036880,313.776489 173.149643,309.383942 
	C173.646317,308.683105 172.737045,306.985992 172.811264,305.118774 
	C172.740082,304.728790 172.668900,304.338806 172.597717,303.948822 
	C172.447525,303.973389 172.297333,303.997986 172.147125,304.022552 
	C172.237595,304.605804 172.328064,305.189026 171.681351,306.246490 
M257.456726,447.782410 
	C252.723602,448.345795 247.990479,448.909180 243.255661,449.462097 
	C244.700958,450.645294 246.146240,451.828461 247.878235,453.655548 
	C253.540039,458.228943 258.873230,463.311523 264.953888,467.235962 
	C271.340057,471.357605 278.764191,472.009033 287.566254,470.466736 
	C285.803528,468.861664 284.886353,467.923370 283.866699,467.114105 
	C275.013428,460.088013 264.414062,456.742462 254.047348,452.444641 
	C255.070801,448.834381 257.986450,449.517853 260.617126,449.534607 
	C260.753754,449.535461 260.891541,449.362244 261.932922,449.411957 
	C275.910950,449.042389 287.249237,443.977295 295.612915,430.645874 
	C280.879425,433.787659 269.791748,441.337616 257.456726,447.782410 
M361.019226,116.732918 
	C360.326843,116.853775 359.634460,116.974632 358.197052,116.938263 
	C334.704559,107.737274 314.059601,114.078796 293.523773,128.975403 
	C296.502228,130.261780 298.411041,131.351196 300.463867,131.928040 
	C310.711761,134.807724 320.661102,133.186996 330.608185,130.045212 
	C343.574951,125.949669 356.631073,122.088577 370.529999,124.967819 
	C371.951324,125.262253 373.486420,125.007332 374.968750,125.007332 
	C375.048187,124.581451 375.127625,124.155579 375.207062,123.729698 
	C373.193237,122.779037 371.179443,121.828377 369.105530,120.252716 
	C368.897308,119.493546 368.689087,118.734367 368.140015,117.332840 
	C364.452911,111.295166 360.684326,105.305443 357.096405,99.209366 
	C350.570679,88.121735 340.825714,81.595383 327.908417,78.088470 
	C328.442841,79.613815 328.522705,80.659782 329.074768,81.295944 
	C338.930389,92.652260 348.831757,103.969040 358.781433,115.243019 
	C359.229004,115.750183 360.225677,115.772781 361.019226,116.732918 
M306.581238,91.223846 
	C310.722687,93.157471 314.864166,95.091087 318.074066,96.948563 
	C296.284210,96.100082 277.146881,102.501205 261.066711,117.475723 
	C262.665955,118.144264 264.095490,118.186958 265.521881,118.137749 
	C281.577301,117.583824 296.674561,113.037262 311.676086,107.656113 
	C317.114899,105.705170 323.210541,105.585205 329.567932,104.973877 
	C330.798187,104.765518 332.028442,104.557159 333.893707,104.241257 
	C331.230957,102.285767 328.795227,100.624825 326.509247,98.778481 
	C324.621094,97.253456 322.910004,95.509216 320.878540,93.236725 
	C310.170959,79.985695 297.353485,69.953262 279.839783,66.637573 
	C283.291229,72.956772 287.739075,78.452461 291.390900,84.434113 
	C294.944183,90.254272 300.410522,90.394310 306.581238,91.223846 
M392.265106,288.027161 
	C392.221405,287.433289 392.177704,286.839447 392.134003,286.245575 
	C391.068176,287.178436 390.002380,288.111298 388.246094,288.863678 
	C387.497498,288.131531 386.748901,287.399384 386.781281,287.431030 
	C385.636169,289.544769 382.810211,288.529633 380.362213,288.859833 
	C378.507324,289.110077 376.678925,290.076202 375.014923,291.030884 
	C373.976898,291.626404 373.266510,292.792999 372.416473,293.697632 
	C373.149078,294.014679 374.497772,294.297974 374.517303,294.654083 
	C374.681091,297.643127 374.681030,300.650177 374.507996,303.638916 
	C374.482147,304.085327 373.304840,304.474670 372.641327,304.857635 
	C372.584259,304.890533 372.384338,304.675964 372.250763,304.576385 
	C372.361237,304.477417 372.471680,304.378448 372.838715,304.049530 
	C377.683075,311.675964 385.423584,306.449921 392.105560,308.595703 
	C391.910156,309.908783 391.596405,311.474091 391.474915,313.054138 
	C391.410492,313.891785 391.540985,314.817993 391.880798,315.569763 
	C391.987030,315.804718 393.564270,315.744446 393.613708,315.572998 
	C393.860931,314.715576 394.153931,313.629852 393.826630,312.892670 
	C392.755096,310.479218 392.076508,308.687347 395.659912,307.666168 
	C396.708893,307.367249 397.556580,304.900055 397.737122,303.338867 
	C398.052155,300.614716 397.486267,297.787018 397.816895,295.066803 
	C398.365540,290.553497 396.544067,288.525055 392.265106,288.027161 
M126.266197,396.007446 
	C126.053596,395.776459 125.917870,395.506805 125.872025,394.272064 
	C125.930115,392.737091 125.988205,391.202148 126.732857,389.936554 
	C129.294937,391.644623 131.681091,393.744781 134.451767,394.987854 
	C143.084595,398.860901 151.890976,402.043701 161.690811,401.182678 
	C175.272491,399.989349 186.683212,393.154449 198.983490,387.610046 
	C197.866913,387.166870 197.157928,386.885437 195.758057,386.329803 
	C197.793945,386.087524 199.149551,385.926208 201.703674,385.622253 
	C199.361588,384.819855 198.156235,384.353638 196.920364,383.991638 
	C182.629959,379.805664 168.399017,380.892517 154.125885,384.259094 
	C142.507004,386.999603 130.784149,390.025330 119.804420,381.989075 
	C119.337059,381.646973 118.231430,382.176910 117.640381,381.465515 
	C116.693054,380.734070 115.745735,380.002625 114.798409,379.271179 
	C114.442444,379.626038 114.086479,379.980927 113.730522,380.335785 
	C114.358788,381.265106 114.987053,382.194427 115.883034,383.754639 
	C117.626358,385.775665 119.369682,387.796661 121.439468,390.684204 
	C121.597359,390.949432 121.755257,391.214630 121.515648,392.084900 
	C126.115578,413.655365 136.247833,431.139923 157.252365,440.667786 
	C153.854309,432.584167 149.813400,424.919312 145.688919,417.299683 
	C143.101913,412.520416 140.389374,407.809082 138.339569,402.710175 
	C138.514145,402.269714 138.892181,401.472717 138.834244,401.439636 
	C134.978683,399.239380 131.733566,395.569122 126.266197,396.007446 
M405.089081,140.508179 
	C402.849304,120.909554 381.472260,93.401985 367.709961,93.036919 
	C375.022034,107.264999 382.846436,120.861214 392.891022,132.951187 
	C392.891022,132.951187 392.906921,133.124405 392.906921,133.124405 
	C392.906921,133.124405 392.857178,132.997208 393.599487,132.834015 
	C397.120239,134.725327 401.443512,135.650711 402.578705,140.426514 
	C402.646942,140.713516 403.719696,140.761765 404.978638,141.306427 
	C405.060303,142.224762 405.141937,143.143112 404.416199,144.091797 
	C399.931030,142.085556 395.411011,140.656387 391.030060,137.814117 
	C385.171448,134.013184 377.036926,132.416946 369.828522,132.262344 
	C353.158234,131.904739 339.714783,140.962860 326.221741,150.091141 
	C335.836243,151.547150 345.406067,152.841003 354.873322,152.309280 
	C362.856293,151.860931 370.746643,149.410141 378.630157,147.633530 
	C388.711151,145.361710 398.635101,144.006287 408.339630,151.052155 
	C410.117523,151.731918 411.895416,152.411682 413.673309,153.091446 
	C413.910980,152.796310 414.148651,152.501160 414.386322,152.206009 
	C413.356232,151.103653 412.326172,150.001297 411.015289,148.252579 
	C409.223328,146.842484 407.431366,145.432373 405.032013,143.623108 
	C404.797424,142.723434 404.562836,141.823761 405.089081,140.508179 
M331.554077,316.971893 
	C331.631714,316.650665 331.709351,316.329468 331.922485,315.265076 
	C331.875458,314.514984 331.828400,313.764893 331.949249,312.088989 
	C331.946716,304.611816 332.111542,297.127899 331.810425,289.662750 
	C331.744629,288.032043 330.015625,286.468384 328.949219,284.104980 
	C326.054443,283.166656 323.067810,282.441803 320.284698,281.244019 
	C315.046173,278.989563 310.668274,280.190826 306.237793,283.964020 
	C305.905090,283.959381 305.572662,283.967194 304.886017,283.346588 
	C298.538300,279.390961 287.538483,280.159973 281.288391,285.032196 
	C281.101440,285.085846 280.914490,285.139526 280.123260,285.502777 
	C280.123260,295.970917 280.123260,306.439056 280.123260,316.399750 
	C286.968018,315.917877 293.984802,315.423889 301.565826,315.403870 
	C303.966278,315.570587 306.577515,316.424286 308.724762,315.765594 
	C313.690155,314.242371 318.324127,313.197601 323.384583,315.617706 
	C325.619049,316.686310 328.442932,316.522308 331.554077,316.971893 
M387.414368,160.990112 
	C375.408173,160.660126 364.639954,165.257462 352.741302,169.089935 
	C377.409760,181.285278 402.678101,178.109802 428.748047,177.531952 
	C416.053101,168.406723 403.213867,162.274567 387.414368,160.990112 
M100.458763,354.193878 
	C101.181938,355.031525 101.760040,356.089752 102.649406,356.674744 
	C128.433075,373.634979 143.775131,377.002533 174.806595,363.653748 
	C165.595734,360.948517 157.269775,357.157898 148.643311,356.262573 
	C132.918808,354.630524 117.016106,354.715210 100.458763,354.193878 
M317.522278,227.994919 
	C322.422394,234.786392 327.322479,241.577866 332.222595,248.369339 
	C333.575378,246.659409 333.789581,245.298615 333.795593,243.936890 
	C333.823486,237.609024 333.507812,231.264145 333.876923,224.958252 
	C334.161865,220.089920 331.427368,214.131317 339.554047,210.870819 
	C333.836945,210.870819 329.776398,210.870819 325.040955,210.870819 
	C327.124207,212.643387 329.636261,213.754547 329.719604,215.025040 
	C330.134003,221.341217 329.908722,227.699356 329.908722,235.142105 
	C324.261261,227.265106 319.353668,220.394745 314.417206,213.545181 
	C311.854248,209.988953 307.187042,209.227936 303.137177,211.651978 
	C307.018799,213.832092 307.049500,213.832062 307.053467,218.824417 
	C307.057983,224.488953 307.047302,230.154312 306.953918,235.817825 
	C306.885956,239.938965 308.417419,244.770126 302.598083,246.579742 
	C306.730682,246.579742 310.863281,246.579742 315.369110,246.579742 
	C313.544830,245.012817 311.308228,244.026260 311.203918,242.850494 
	C310.526611,235.218430 310.313171,227.545181 309.947815,219.885422 
	C310.419189,219.763000 310.890533,219.640594 311.361877,219.518173 
	C313.251129,222.166794 315.140411,224.815430 317.522278,227.994919 
M215.568619,78.936066 
	C204.836899,78.865990 196.288666,83.497032 188.316879,91.396202 
	C194.218262,94.874077 200.026917,95.830246 205.842499,94.466354 
	C217.225845,91.796661 228.455399,88.477013 239.783813,85.563301 
	C242.722366,84.807487 245.791153,84.558060 248.800125,84.076035 
	C248.750473,83.574951 248.700806,83.073868 248.651154,82.572784 
	C245.061859,82.572784 241.422012,82.956718 237.893875,82.492188 
	C230.735794,81.549728 223.638138,80.148209 215.568619,78.936066 
M286.218842,454.932404 
	C287.214172,454.998596 288.220795,454.991241 289.203033,455.142578 
	C297.543121,456.427338 305.875031,458.745056 314.216736,458.776001 
	C323.358459,458.809967 331.021301,454.070862 337.463165,446.447540 
	C329.522491,443.935303 322.250854,443.007172 314.801697,444.773590 
	C301.394806,447.952850 288.008209,451.217712 274.839935,454.392090 
	C277.954712,454.533295 281.631195,454.699982 286.218842,454.932404 
M399.653076,230.817001 
	C398.304352,229.231003 396.955658,227.645004 395.233337,225.619659 
	C401.403809,220.396912 407.057861,215.611313 412.888275,210.676422 
	C408.968719,210.676422 404.997498,210.676422 400.311615,210.676422 
	C401.523682,212.109985 402.278107,213.002289 402.645569,213.436874 
	C398.708435,217.655289 394.952118,221.679993 391.195801,225.704681 
	C391.398132,220.547058 387.194366,214.478897 394.541718,210.849335 
	C390.045502,210.849335 385.549316,210.849335 381.053101,210.849335 
	C386.358063,212.544205 385.046967,216.730408 385.062103,220.294342 
	C385.087524,226.290039 384.959259,232.289047 385.122345,238.280502 
	C385.217926,241.791367 385.556702,245.191162 381.045898,246.710419 
	C385.523926,246.710419 390.001923,246.710419 395.321808,246.710419 
	C390.165344,243.587479 388.760986,236.602081 391.365936,228.900040 
	C394.710449,232.941467 397.990417,236.587997 400.858795,240.533722 
	C401.941437,242.023010 402.072388,244.204193 402.873932,246.852203 
	C405.825867,246.852203 410.336731,246.852203 414.290100,246.852203 
	C409.600616,241.734528 404.850861,236.551071 399.653076,230.817001 
M219.867920,309.689301 
	C219.562866,311.581329 219.257812,313.473389 218.952774,315.365417 
	C218.266510,315.270813 217.580261,315.176239 216.894012,315.081635 
	C216.894012,311.418427 216.894012,307.755219 216.894012,303.687744 
	C214.470001,304.383026 212.797058,304.862854 211.563889,305.216553 
	C210.936951,309.367065 210.377991,313.067535 209.782730,317.008270 
	C220.584091,317.008270 232.760391,317.008270 244.541122,317.008270 
	C239.902222,307.517975 243.953949,297.621948 241.990967,288.245941 
	C238.282730,290.372986 236.365570,292.984314 236.833542,297.489044 
	C237.329773,302.265594 237.041031,307.137573 236.868073,311.959747 
	C236.825623,313.142914 235.899185,314.294312 235.379150,315.460327 
	C234.876373,315.323120 234.373581,315.185883 233.870789,315.048676 
	C233.870789,308.682404 233.870789,302.316132 233.870789,295.459686 
	C229.849243,296.901733 227.537323,298.455292 227.956146,302.738892 
	C228.358551,306.854401 228.043137,311.040131 228.043137,315.195007 
	C227.204910,315.242523 226.366684,315.290039 225.528473,315.337555 
	C225.277588,310.596649 225.026703,305.855713 224.776978,301.136749 
	C218.630447,301.104980 219.880310,305.350433 219.867920,309.689301 
M119.368156,247.207916 
	C125.130440,247.207916 130.892715,247.207916 136.918839,247.207916 
	C137.443710,243.534851 137.885910,240.440338 138.328110,237.345810 
	C137.868484,236.936417 137.408859,236.527008 136.949234,236.117615 
	C135.576111,244.988647 129.974274,244.605103 123.417419,243.543213 
	C123.417419,236.132111 123.384750,228.847336 123.430305,221.563034 
	C123.455551,217.527237 122.006752,212.799057 127.852524,210.937546 
	C123.247452,210.937546 118.642387,210.937546 114.037323,210.937546 
	C118.166412,212.551651 118.347237,215.556335 118.220253,219.030487 
	C118.025757,224.351868 118.291138,229.688873 118.155617,235.013992 
	C118.045403,239.344681 120.080078,244.597290 113.768333,247.234833 
	C115.360512,247.234833 116.952682,247.234833 119.368156,247.207916 
M255.013626,222.554794 
	C255.013626,219.573517 255.013626,216.592239 255.013626,213.736679 
	C256.561157,212.976318 257.879578,212.328522 259.198029,211.680710 
	C259.106781,211.401031 259.015564,211.121338 258.924347,210.841644 
	C254.364868,210.841644 249.805374,210.841644 245.245895,210.841644 
	C250.617142,212.425385 249.754654,216.532272 249.710953,220.291107 
	C249.651016,225.446381 249.727142,230.603333 249.658707,235.758408 
	C249.604309,239.858902 251.176834,244.632263 243.701004,246.581818 
	C250.016556,246.581818 254.499268,246.581818 258.981995,246.581818 
	C255.235291,245.274017 254.806778,242.762268 254.950150,239.500977 
	C255.183640,234.189011 255.013504,228.859314 255.013626,222.554794 
M262.379150,87.004829 
	C249.018204,88.477776 238.052643,93.662880 231.457230,105.620476 
	C231.879486,106.345970 232.301727,107.071465 232.723984,107.796959 
	C244.189819,101.666237 255.655655,95.535515 267.493408,89.205933 
	C266.500153,88.084564 266.171875,87.394455 265.663788,87.215782 
	C264.915771,86.952751 264.039520,87.054466 262.379150,87.004829 
M222.635635,298.155884 
	C228.504044,293.939270 234.429749,289.798706 240.198837,285.450348 
	C241.568604,284.417877 242.413574,282.689178 243.499924,281.280701 
	C242.776932,280.737396 242.053940,280.194061 241.330933,279.650726 
	C239.473282,281.870148 237.792969,284.272705 235.725250,286.275208 
	C229.101761,292.690002 221.284119,297.127686 212.461761,299.835083 
	C211.421967,300.154175 210.541168,300.991425 209.586685,301.588501 
	C209.846390,302.075104 210.106094,302.561737 210.365814,303.048340 
	C214.246719,301.557159 218.127640,300.065979 222.635635,298.155884 
M189.539871,232.006607 
	C192.507416,232.004883 195.500229,232.219177 198.427963,231.876907 
	C199.371918,231.766541 200.144669,230.191788 200.995758,229.286957 
	C200.172760,228.524231 199.373215,227.132828 198.522949,227.101105 
	C193.124313,226.899780 187.714478,226.998779 181.866699,226.998779 
	C181.949844,228.892639 182.014984,230.376419 182.086548,232.006607 
	C184.637802,232.006607 186.603912,232.006607 189.539871,232.006607 
M135.422104,306.107300 
	C132.100296,306.107300 128.778473,306.107300 125.169540,306.107300 
	C125.456810,310.710876 128.763092,311.760590 132.310974,311.975128 
	C136.491089,312.227936 140.427292,311.504303 142.215515,306.402771 
	C139.859528,306.288666 138.100464,306.203491 135.422104,306.107300 
M361.661102,340.090454 
	C361.444153,339.004761 361.450531,337.800110 360.951965,336.864471 
	C360.369781,335.771851 359.178558,334.024536 358.550690,334.143250 
	C357.319061,334.376129 355.629486,335.536499 355.354584,336.623016 
	C355.019196,337.948608 355.495453,340.340759 356.439606,340.907593 
	C357.580688,341.592651 359.579865,340.848297 361.661102,340.090454 
M293.162628,338.450195 
	C293.325928,337.984283 292.116699,336.298035 290.205994,334.278076 
	C288.766998,335.226929 287.367004,336.150024 286.126038,336.968292 
	C286.613281,338.598480 287.084930,340.176544 287.498322,341.559631 
	C289.270355,341.559631 291.124847,341.559631 292.914642,341.559631 
	C292.914642,340.757385 292.914642,339.951691 293.162628,338.450195 
M250.175507,339.075775 
	C249.305374,337.388214 248.435242,335.700623 247.565094,334.013062 
	C246.418610,334.757660 244.480469,335.352478 244.304810,336.280792 
	C244.016449,337.804779 244.871674,339.545197 245.244659,341.194366 
	C246.845276,340.725769 248.445892,340.257202 250.175507,339.075775 
M225.430466,337.166840 
	C224.385666,336.099670 223.143539,333.982025 222.327972,334.135254 
	C216.885925,335.157440 221.506454,339.362976 219.331406,342.116974 
	C221.727600,341.938721 223.254532,341.825104 223.892044,341.777679 
	C224.406403,340.021362 224.727905,338.923523 225.430466,337.166840 
M337.045410,338.398773 
	C336.102264,336.921448 335.159149,335.444092 334.216034,333.966736 
	C333.100861,334.960907 331.220245,335.848511 331.063263,336.976074 
	C330.864655,338.402832 332.068634,340.024902 332.667664,341.562714 
	C334.123749,340.773529 335.579834,339.984314 337.045410,338.398773 
M343.742310,340.473663 
	C345.335175,341.077850 346.928040,341.682037 347.669281,341.963196 
	C348.284668,340.006042 348.759399,338.981140 348.898193,337.912628 
	C349.026001,336.928345 349.093384,335.208160 348.660583,335.019348 
	C347.488556,334.507935 346.019287,334.491394 344.711182,334.645508 
	C344.468842,334.674042 344.423889,336.416290 344.296234,337.368713 
	C344.189941,338.161652 344.095978,338.956268 343.742310,340.473663 
M319.949432,335.450867 
	C319.663269,337.512421 319.377136,339.573975 319.073639,341.760406 
	C320.853607,341.760406 322.425079,341.760406 323.616913,341.760406 
	C323.684357,340.439880 323.712555,339.424622 323.794189,338.413666 
	C323.885406,337.283478 324.025116,336.157196 324.143707,335.029236 
	C322.735718,334.946472 321.327759,334.863739 319.949432,335.450867 
M167.437286,333.964386 
	C167.076202,336.306091 166.482376,338.655334 166.557388,340.982971 
	C166.571777,341.429657 169.215515,341.791595 170.248810,342.081238 
	C170.568314,340.353058 170.783798,339.187500 171.124237,337.346069 
	C171.094376,337.330017 170.219559,336.860077 169.588150,336.520874 
	C170.270584,336.029388 171.048065,335.469421 172.630783,334.329559 
	C170.475403,334.150574 169.379379,334.059570 167.437286,333.964386 
M258.548553,333.841339 
	C257.712830,334.006012 256.877106,334.170685 256.459259,334.252991 
	C257.873871,336.896942 259.117493,339.221313 261.000427,342.740601 
	C261.540253,338.728424 264.035248,335.782837 258.548553,333.841339 
M110.364151,373.535889 
	C109.828087,373.824921 109.292023,374.113953 108.755959,374.403015 
	C109.745140,375.496643 110.734322,376.590271 111.723495,377.683899 
	C112.030182,377.403168 112.336861,377.122437 112.643539,376.841675 
	C112.114456,375.969666 111.585381,375.097626 110.364151,373.535889 
M162.200836,298.605652 
	C162.205154,298.213593 162.209473,297.821564 162.213791,297.429504 
	C162.051132,297.427917 161.747086,297.415375 161.746246,297.426361 
	C161.716019,297.816681 161.714188,298.209198 162.200836,298.605652 
M414.577484,155.636368 
	C415.285706,155.986176 415.993958,156.335983 416.702179,156.685791 
	C416.941223,156.231964 417.180237,155.778152 417.419250,155.324326 
	C416.326721,155.076782 415.234222,154.829254 414.577484,155.636368 
M168.815582,297.229584 
	C168.874329,297.406219 168.933075,297.582825 168.991837,297.759460 
	C169.048706,297.581512 169.105576,297.403595 168.815582,297.229584 
M136.555603,295.484833 
	C136.555603,295.484833 136.478439,295.528534 136.555603,295.484833 
M170.395981,301.480896 
	C170.395981,301.480896 170.527649,301.398743 170.395981,301.480896 
z"/>
<path fill="#F8F8F8" opacity="1.000000" stroke="none" 
	d="
M216.002380,444.284332 
	C220.451187,444.989532 224.899979,445.694733 229.756607,446.876862 
	C230.332474,447.641968 230.568314,447.855133 230.871964,447.993256 
	C235.720810,454.817139 240.569672,461.641022 245.418518,468.464905 
	C245.029068,469.011078 244.639603,469.557251 244.250137,470.103394 
	C241.328812,469.085999 238.406296,468.072083 235.486374,467.050659 
	C222.189880,462.399200 213.216248,452.420929 204.723358,441.913605 
	C202.766464,439.492523 201.675400,436.288971 199.487045,434.165833 
	C197.956436,432.680786 195.236801,432.421326 193.343658,430.651337 
	C198.427460,430.190857 203.645844,430.305084 208.567596,429.152557 
	C219.468933,426.599854 230.118607,422.915405 241.068604,420.646576 
	C249.066238,418.989441 257.379242,418.854340 265.551666,418.040771 
	C266.066437,418.924408 266.581177,419.808014 267.095947,420.691620 
	C266.026398,421.053650 264.813080,421.201721 263.908661,421.809509 
	C248.315430,432.288330 231.767761,439.634125 212.361176,437.923950 
	C210.715073,437.778900 209.036545,437.960724 207.382278,438.100037 
	C207.316406,438.105560 207.345810,439.242462 207.737823,440.383179 
	C210.099670,441.607758 212.054504,442.301361 214.009354,442.994934 
	C214.009354,442.994934 214.000000,443.000000 214.002869,443.348694 
	C214.652588,444.494476 215.299423,445.291534 216.017319,446.229736 
	C216.195114,446.408356 216.301834,446.445770 216.408554,446.483215 
	C216.302002,446.304016 216.195465,446.124786 216.069366,445.669006 
	C216.034012,445.023071 216.018188,444.653687 216.002380,444.284332 
z"/>
<path fill="#F8F8F8" opacity="1.000000" stroke="none" 
	d="
M121.113007,389.817688 
	C119.369682,387.796661 117.626358,385.775665 115.993034,383.383972 
	C116.543076,382.775726 116.983116,382.538147 117.423141,382.300598 
	C118.231430,382.176910 119.337059,381.646973 119.804420,381.989075 
	C130.784149,390.025330 142.507004,386.999603 154.125885,384.259094 
	C168.399017,380.892517 182.629959,379.805664 196.920364,383.991638 
	C198.156235,384.353638 199.361588,384.819855 201.703674,385.622253 
	C199.149551,385.926208 197.793945,386.087524 195.758057,386.329803 
	C197.157928,386.885437 197.866913,387.166870 198.983490,387.610046 
	C186.683212,393.154449 175.272491,399.989349 161.690811,401.182678 
	C151.890976,402.043701 143.084595,398.860901 134.451767,394.987854 
	C131.681091,393.744781 129.294937,391.644623 126.243652,389.529938 
	C125.154938,389.116272 124.555443,389.109222 123.690186,389.102203 
	C123.241631,389.395538 123.058823,389.688843 122.581238,389.964844 
	C121.895302,389.904266 121.504150,389.860992 121.113007,389.817688 
z"/>
<path fill="#F8F8F8" opacity="1.000000" stroke="none" 
	d="
M405.639404,144.022278 
	C407.431366,145.432373 409.223328,146.842484 410.744690,148.606903 
	C409.593597,149.467987 408.713104,149.974747 407.832642,150.481522 
	C398.635101,144.006287 388.711151,145.361710 378.630157,147.633530 
	C370.746643,149.410141 362.856293,151.860931 354.873322,152.309280 
	C345.406067,152.841003 335.836243,151.547150 326.221741,150.091141 
	C339.714783,140.962860 353.158234,131.904739 369.828522,132.262344 
	C377.036926,132.416946 385.171448,134.013184 391.030060,137.814117 
	C395.411011,140.656387 399.931030,142.085556 404.925049,144.079468 
	C405.433899,144.067154 405.639404,144.022278 405.639404,144.022278 
z"/>
<path fill="#FAFAFA" opacity="1.000000" stroke="none" 
	d="
M369.165619,120.877716 
	C371.179443,121.828377 373.193237,122.779037 375.207062,123.729698 
	C375.127625,124.155579 375.048187,124.581451 374.968750,125.007332 
	C373.486420,125.007332 371.951324,125.262253 370.529999,124.967819 
	C356.631073,122.088577 343.574951,125.949669 330.608185,130.045212 
	C320.661102,133.186996 310.711761,134.807724 300.463867,131.928040 
	C298.411041,131.351196 296.502228,130.261780 293.523773,128.975403 
	C314.059601,114.078796 334.704559,107.737274 358.408478,117.326302 
	C357.345764,117.964935 356.071594,118.215530 354.797455,118.466125 
	C354.820557,118.918503 354.843689,119.370880 354.866821,119.823257 
	C359.633087,120.174744 364.399353,120.526230 369.165619,120.877716 
z"/>
<path fill="#F8F8F8" opacity="1.000000" stroke="none" 
	d="
M387.880005,160.990219 
	C403.213867,162.274567 416.053101,168.406723 428.748047,177.531952 
	C402.678101,178.109802 377.409760,181.285278 352.741302,169.089935 
	C364.639954,165.257462 375.408173,160.660126 387.880005,160.990219 
z"/>
<path fill="#F7F7F7" opacity="1.000000" stroke="none" 
	d="
M100.823257,354.138794 
	C117.016106,354.715210 132.918808,354.630524 148.643311,356.262573 
	C157.269775,357.157898 165.595734,360.948517 174.806595,363.653748 
	C143.775131,377.002533 128.433075,373.634979 102.649406,356.674744 
	C101.760040,356.089752 101.181938,355.031525 100.823257,354.138794 
z"/>
<path fill="#FAFAFA" opacity="1.000000" stroke="none" 
	d="
M281.866913,284.955872 
	C287.538483,280.159973 298.538300,279.390961 305.003998,284.133575 
	C305.040314,292.827301 305.044586,300.736725 304.799377,308.638397 
	C304.754120,310.096344 303.699554,311.522949 302.785828,313.007690 
	C301.974396,313.677521 301.487976,314.303711 301.001587,314.929901 
	C293.984802,315.423889 286.968018,315.917877 280.123260,316.399750 
	C280.123260,306.439056 280.123260,295.970917 280.525574,285.795166 
	C280.927917,295.296082 280.927917,304.504608 280.927917,313.939331 
	C282.542969,313.939331 283.684906,313.939331 285.042664,313.891998 
	C285.113647,313.583832 284.968842,313.322998 284.392517,313.060791 
	C283.299103,311.725739 282.099762,310.406494 282.063629,309.056152 
	C281.848816,301.026703 281.903046,292.990082 281.866913,284.955872 
M290.470001,312.319427 
	C290.608032,311.897491 290.768585,311.480530 290.864532,311.049225 
	C290.883026,310.966095 290.648285,310.826660 290.530396,310.713196 
	C290.392303,311.134888 290.254211,311.556549 290.470001,312.319427 
z"/>
<path fill="#FCFCFC" opacity="1.000000" stroke="none" 
	d="
M301.283691,315.166870 
	C301.487976,314.303711 301.974396,313.677521 303.057037,313.095154 
	C305.658752,314.935486 306.982941,315.091431 306.954132,311.805389 
	C306.872925,302.532562 306.807678,293.259613 306.736145,283.986694 
	C310.668274,280.190826 315.046173,278.989563 320.284698,281.244019 
	C323.067810,282.441803 326.054443,283.166656 328.974609,284.896545 
	C328.994446,286.775818 328.988892,287.863525 329.000244,289.424255 
	C329.007263,291.890106 328.911072,293.886963 329.003632,295.875000 
	C329.268768,301.568298 329.610443,307.258057 330.231812,312.963470 
	C330.954865,312.990112 331.368103,313.002472 331.781342,313.014801 
	C331.828400,313.764893 331.875458,314.514984 331.675903,315.741943 
	C331.215576,316.408508 331.072205,316.641541 330.999237,316.917877 
	C328.442932,316.522308 325.619049,316.686310 323.384583,315.617706 
	C318.324127,313.197601 313.690155,314.242371 308.724762,315.765594 
	C306.577515,316.424286 303.966278,315.570587 301.283691,315.166870 
M311.697113,310.801086 
	C311.306610,310.757446 310.916138,310.713776 310.525635,310.670135 
	C310.516571,310.947723 310.507538,311.225281 310.498474,311.502869 
	C310.894775,311.453278 311.291107,311.403687 311.697113,310.801086 
M320.831757,311.956085 
	C320.734009,311.530304 320.636261,311.104492 320.538513,310.678711 
	C320.413940,310.773132 320.173706,310.883057 320.183929,310.959442 
	C320.241669,311.390900 320.359528,311.814270 320.831757,311.956085 
M323.477448,312.430908 
	C323.538757,312.184509 323.600067,311.938110 323.661346,311.691711 
	C323.507721,311.850800 323.354126,312.009857 323.477448,312.430908 
z"/>
<path fill="#F9F9F9" opacity="1.000000" stroke="none" 
	d="
M329.006470,104.629791 
	C323.210541,105.585205 317.114899,105.705170 311.676086,107.656113 
	C296.674561,113.037262 281.577301,117.583824 265.521881,118.137749 
	C264.095490,118.186958 262.665955,118.144264 261.066711,117.475723 
	C277.146881,102.501205 296.284210,96.100082 318.644958,97.271919 
	C320.804138,101.122559 323.960724,101.839149 327.353607,102.377434 
	C328.007233,102.481133 328.460663,103.846466 329.006470,104.629791 
z"/>
<path fill="#FCFCFC" opacity="1.000000" stroke="none" 
	d="
M196.998016,404.870819 
	C208.946960,400.089203 225.769043,401.158356 231.645554,407.072845 
	C220.140884,420.379944 190.734604,425.773529 171.384491,417.604675 
	C170.806656,416.434113 170.538940,415.727661 170.271240,415.021240 
	C169.180054,415.616516 168.088882,416.211792 166.997711,416.807068 
	C166.833649,416.864288 166.669586,416.921478 166.253586,416.529968 
	C165.334702,414.062073 164.667755,412.042877 164.000809,410.023651 
	C167.724365,409.741638 171.447937,409.459595 175.586487,409.580017 
	C177.551910,415.439789 183.498489,418.048523 190.929398,416.908356 
	C194.409790,416.374329 198.027969,416.073883 201.516052,416.397278 
	C208.055283,417.003540 208.789047,416.348297 207.322174,409.262817 
	C206.078888,409.391266 204.605667,410.004333 203.592331,409.562561 
	C200.423080,408.180847 197.733765,407.666840 194.222122,409.358063 
	C192.551193,410.162781 189.454102,408.006226 187.003067,407.191101 
	C189.419388,406.480103 191.835693,405.769073 194.677902,405.403564 
	C195.735199,405.456268 196.366608,405.163544 196.998016,404.870819 
M227.175568,407.755676 
	C227.120132,407.588287 227.064697,407.420868 227.009262,407.253479 
	C226.955276,407.421875 226.901291,407.590302 227.175568,407.755676 
z"/>
<path fill="#F8F8F8" opacity="1.000000" stroke="none" 
	d="
M105.128769,370.965240 
	C104.277122,370.584381 103.425468,370.203522 103.474449,370.225433 
	C105.946930,379.254242 108.533501,388.699707 110.781738,398.573364 
	C110.232819,399.026276 110.022232,399.051056 109.811653,399.075806 
	C101.484413,390.873169 96.792007,380.694916 92.846344,369.832489 
	C87.112114,354.046143 80.525185,338.568939 74.266357,322.974152 
	C72.547485,318.691345 70.624969,314.489563 68.939835,310.194122 
	C67.674789,306.969513 69.029556,305.161072 72.336342,304.603912 
	C85.897842,341.706421 87.219086,344.239471 97.147758,351.640228 
	C95.759399,351.957214 94.670082,352.205933 92.944695,352.599884 
	C94.122177,354.531708 95.113693,356.158478 96.049370,358.365356 
	C95.714081,359.247162 95.434639,359.548859 95.054298,359.528412 
	C94.180000,358.919800 93.406601,358.633362 92.633202,358.346924 
	C92.499191,358.721649 92.365189,359.096344 92.231178,359.471039 
	C93.090904,359.723541 93.950638,359.976044 94.890656,360.577148 
	C96.052742,362.895721 97.263885,364.135529 99.132660,361.663025 
	C100.225586,362.748383 101.318512,363.833740 102.043533,365.350098 
	C101.025299,365.932465 100.374985,366.083801 99.724663,366.235168 
	C99.954109,366.623077 100.183556,367.010986 100.413010,367.398895 
	C101.095711,366.845551 101.778412,366.292236 102.461113,365.738922 
	C103.571938,366.604462 104.682762,367.470001 105.891617,368.922333 
	C105.702682,369.994507 105.415726,370.479858 105.128769,370.965240 
z"/>
<path fill="#F8F8F8" opacity="1.000000" stroke="none" 
	d="
M419.282837,135.246399 
	C426.231964,141.947449 431.166351,150.116470 433.821533,159.180115 
	C438.864532,176.394653 446.494751,192.388794 454.801117,208.148376 
	C456.422089,211.223831 458.002502,214.327728 459.425293,217.497635 
	C460.153839,219.120865 460.996704,220.966263 460.841736,222.622742 
	C460.725922,223.860886 459.095490,224.957352 458.139526,226.116913 
	C457.423828,225.167709 456.499329,224.312256 456.024658,223.254852 
	C450.993347,212.046356 446.177826,200.737839 440.946350,189.624725 
	C439.731262,187.043549 437.165710,185.098114 435.081421,182.256989 
	C434.794830,180.822739 434.648407,179.991638 434.501953,179.160553 
	C434.368469,178.386993 434.234955,177.613434 434.349548,176.423035 
	C435.188141,175.493790 435.778595,174.981384 436.369019,174.468979 
	C435.001221,173.508804 434.138336,170.461975 431.834106,173.371597 
	C430.043335,171.549774 428.252563,169.727951 426.841431,167.472473 
	C428.956421,164.995575 428.956421,164.995575 425.004913,162.559296 
	C424.772980,161.735565 424.451172,161.322754 424.129364,160.909943 
	C424.135010,161.588333 424.140656,162.266708 423.777283,162.963959 
	C422.915741,162.997498 422.423218,163.012177 421.930725,163.026855 
	C421.167725,162.365997 420.404724,161.705154 419.792267,160.461304 
	C420.149292,159.632462 420.355713,159.386642 420.562134,159.140823 
	C421.478485,159.605392 422.394836,160.069962 423.759399,160.761765 
	C421.247986,152.716293 418.942322,145.330002 416.977966,137.460205 
	C417.973816,136.399918 418.628326,135.823166 419.282837,135.246399 
M430.481689,168.593140 
	C430.481689,168.593140 430.408234,168.471283 430.481689,168.593140 
z"/>
<path fill="#EEEEEE" opacity="1.000000" stroke="none" 
	d="
M317.275970,227.729492 
	C315.140411,224.815430 313.251129,222.166794 311.361877,219.518173 
	C310.890533,219.640594 310.419189,219.763000 309.947815,219.885422 
	C310.313171,227.545181 310.526611,235.218430 311.203918,242.850494 
	C311.308228,244.026260 313.544830,245.012817 315.369110,246.579742 
	C310.863281,246.579742 306.730682,246.579742 302.598083,246.579742 
	C308.417419,244.770126 306.885956,239.938965 306.953918,235.817825 
	C307.047302,230.154312 307.057983,224.488953 307.053467,218.824417 
	C307.049500,213.832062 307.018799,213.832092 303.137177,211.651978 
	C307.187042,209.227936 311.854248,209.988953 314.417206,213.545181 
	C319.353668,220.394745 324.261261,227.265106 329.908722,235.142105 
	C329.908722,227.699356 330.134003,221.341217 329.719604,215.025040 
	C329.636261,213.754547 327.124207,212.643387 325.040955,210.870819 
	C329.776398,210.870819 333.836945,210.870819 339.554047,210.870819 
	C331.427368,214.131317 334.161865,220.089920 333.876923,224.958252 
	C333.507812,231.264145 333.823486,237.609024 333.795593,243.936890 
	C333.789581,245.298615 333.575378,246.659409 332.222595,248.369339 
	C327.322479,241.577866 322.422394,234.786392 317.275970,227.729492 
z"/>
<path fill="#F7F7F7" opacity="1.000000" stroke="none" 
	d="
M392.776337,133.167999 
	C382.846436,120.861214 375.022034,107.264999 367.709961,93.036919 
	C381.472260,93.401985 402.849304,120.909554 404.732239,140.710480 
	C404.375366,140.912766 404.325012,140.921112 404.325012,140.921112 
	C403.719696,140.761765 402.646942,140.713516 402.578705,140.426514 
	C401.443512,135.650711 397.120239,134.725327 393.213440,132.960815 
	C392.827362,133.087616 392.776337,133.167999 392.776337,133.167999 
z"/>
<path fill="#F7F7F7" opacity="1.000000" stroke="none" 
	d="
M137.733170,403.067261 
	C140.389374,407.809082 143.101913,412.520416 145.688919,417.299683 
	C149.813400,424.919312 153.854309,432.584167 157.252365,440.667786 
	C136.247833,431.139923 126.115578,413.655365 121.969559,391.634949 
	C123.568642,392.522827 124.713829,393.860626 125.859016,395.198425 
	C125.917870,395.506805 126.053596,395.776459 126.519974,396.429688 
	C130.426895,398.923706 134.080032,400.995483 137.733170,403.067261 
z"/>
<path fill="#F8F8F8" opacity="1.000000" stroke="none" 
	d="
M216.042099,78.935989 
	C223.638138,80.148209 230.735794,81.549728 237.893875,82.492188 
	C241.422012,82.956718 245.061859,82.572784 248.651154,82.572784 
	C248.700806,83.073868 248.750473,83.574951 248.800125,84.076035 
	C245.791153,84.558060 242.722366,84.807487 239.783813,85.563301 
	C228.455399,88.477013 217.225845,91.796661 205.842499,94.466354 
	C200.026917,95.830246 194.218262,94.874077 188.316879,91.396202 
	C196.288666,83.497032 204.836899,78.865990 216.042099,78.935989 
z"/>
<path fill="#F7F7F7" opacity="1.000000" stroke="none" 
	d="
M285.763245,454.899536 
	C281.631195,454.699982 277.954712,454.533295 274.839935,454.392090 
	C288.008209,451.217712 301.394806,447.952850 314.801697,444.773590 
	C322.250854,443.007172 329.522491,443.935303 337.463165,446.447540 
	C331.021301,454.070862 323.358459,458.809967 314.216736,458.776001 
	C305.875031,458.745056 297.543121,456.427338 289.203033,455.142578 
	C288.220795,454.991241 287.214172,454.998596 285.763245,454.899536 
z"/>
<path fill="#F1F1F1" opacity="1.000000" stroke="none" 
	d="
M399.877106,231.092316 
	C404.850861,236.551071 409.600616,241.734528 414.290100,246.852203 
	C410.336731,246.852203 405.825867,246.852203 402.873932,246.852203 
	C402.072388,244.204193 401.941437,242.023010 400.858795,240.533722 
	C397.990417,236.587997 394.710449,232.941467 391.365936,228.900040 
	C388.760986,236.602081 390.165344,243.587479 395.321808,246.710419 
	C390.001923,246.710419 385.523926,246.710419 381.045898,246.710419 
	C385.556702,245.191162 385.217926,241.791367 385.122345,238.280502 
	C384.959259,232.289047 385.087524,226.290039 385.062103,220.294342 
	C385.046967,216.730408 386.358063,212.544205 381.053101,210.849335 
	C385.549316,210.849335 390.045502,210.849335 394.541718,210.849335 
	C387.194366,214.478897 391.398132,220.547058 391.195801,225.704681 
	C394.952118,221.679993 398.708435,217.655289 402.645569,213.436874 
	C402.278107,213.002289 401.523682,212.109985 400.311615,210.676422 
	C404.997498,210.676422 408.968719,210.676422 412.888275,210.676422 
	C407.057861,215.611313 401.403809,220.396912 395.233337,225.619659 
	C396.955658,227.645004 398.304352,229.231003 399.877106,231.092316 
z"/>
<path fill="#F4F4F4" opacity="1.000000" stroke="none" 
	d="
M219.862595,309.257935 
	C219.880310,305.350433 218.630447,301.104980 224.776978,301.136749 
	C225.026703,305.855713 225.277588,310.596649 225.528473,315.337555 
	C226.366684,315.290039 227.204910,315.242523 228.043137,315.195007 
	C228.043137,311.040131 228.358551,306.854401 227.956146,302.738892 
	C227.537323,298.455292 229.849243,296.901733 233.870789,295.459686 
	C233.870789,302.316132 233.870789,308.682404 233.870789,315.048676 
	C234.373581,315.185883 234.876373,315.323120 235.379150,315.460327 
	C235.899185,314.294312 236.825623,313.142914 236.868073,311.959747 
	C237.041031,307.137573 237.329773,302.265594 236.833542,297.489044 
	C236.365570,292.984314 238.282730,290.372986 241.990967,288.245941 
	C243.953949,297.621948 239.902222,307.517975 244.541122,317.008270 
	C232.760391,317.008270 220.584091,317.008270 209.782730,317.008270 
	C210.377991,313.067535 210.936951,309.367065 211.563889,305.216553 
	C212.797058,304.862854 214.470001,304.383026 216.894012,303.687744 
	C216.894012,307.755219 216.894012,311.418427 216.894012,315.081635 
	C217.580261,315.176239 218.266510,315.270813 218.952774,315.365417 
	C219.257812,313.473389 219.562866,311.581329 219.862595,309.257935 
z"/>
<path fill="#F4F4F4" opacity="1.000000" stroke="none" 
	d="
M392.112427,288.600433 
	C396.544067,288.525055 398.365540,290.553497 397.816895,295.066803 
	C397.486267,297.787018 398.052155,300.614716 397.737122,303.338867 
	C397.556580,304.900055 396.708893,307.367249 395.659912,307.666168 
	C392.076508,308.687347 392.755096,310.479218 393.826630,312.892670 
	C394.153931,313.629852 393.860931,314.715576 393.613708,315.572998 
	C393.564270,315.744446 391.987030,315.804718 391.880798,315.569763 
	C391.540985,314.817993 391.410492,313.891785 391.474915,313.054138 
	C391.596405,311.474091 391.910156,309.908783 392.105560,308.595703 
	C385.423584,306.449921 377.683075,311.675964 372.838715,304.049530 
	C372.471680,304.378448 372.361237,304.477417 372.250793,304.576416 
	C372.384338,304.675964 372.584259,304.890533 372.641327,304.857635 
	C373.304840,304.474670 374.482147,304.085327 374.507996,303.638916 
	C374.681030,300.650177 374.681091,297.643127 374.517303,294.654083 
	C374.497772,294.297974 373.149078,294.014679 372.412781,293.700470 
	C373.266510,292.792999 373.976898,291.626404 375.014923,291.030884 
	C376.678925,290.076202 378.507324,289.110077 380.362213,288.859833 
	C382.810211,288.529633 385.636169,289.544769 386.781281,287.431030 
	C386.748901,287.399384 387.497498,288.131531 388.683990,289.345734 
	C388.946442,290.922058 388.691040,292.011108 388.619476,293.112122 
	C388.556061,294.087860 388.533783,295.134491 388.847839,296.024719 
	C388.941223,296.289429 390.808563,296.330444 390.876648,296.133301 
	C391.193604,295.215424 391.115814,294.170410 391.270935,293.185303 
	C391.512482,291.650879 391.828156,290.128143 392.112427,288.600433 
z"/>
<path fill="#F8F8F8" opacity="1.000000" stroke="none" 
	d="
M306.024384,90.792358 
	C300.410522,90.394310 294.944183,90.254272 291.390900,84.434113 
	C287.739075,78.452461 283.291229,72.956772 279.839783,66.637573 
	C297.353485,69.953262 310.170959,79.985695 320.801270,93.795830 
	C316.510162,92.623581 312.296356,90.892235 307.706146,89.006218 
	C307.630402,89.086662 306.827393,89.939507 306.024384,90.792358 
z"/>
<path fill="#F6F6F6" opacity="1.000000" stroke="none" 
	d="
M360.966583,116.021080 
	C360.225677,115.772781 359.229004,115.750183 358.781433,115.243019 
	C348.831757,103.969040 338.930389,92.652260 329.074768,81.295944 
	C328.522705,80.659782 328.442841,79.613815 327.908417,78.088470 
	C340.825714,81.595383 350.570679,88.121735 357.096405,99.209366 
	C360.684326,105.305443 364.452911,111.295166 367.888519,117.681320 
	C367.079681,118.006973 366.522308,117.984131 365.979858,117.976662 
	C365.994781,117.992035 366.029510,118.016701 365.880493,117.683517 
	C364.143188,116.907249 362.554871,116.464165 360.966583,116.021080 
z"/>
<path fill="#FCFCFC" opacity="1.000000" stroke="none" 
	d="
M165.018433,418.993256 
	C167.409683,420.864349 170.185928,422.404999 172.125000,424.664185 
	C180.188156,434.058533 187.999023,443.669403 195.875580,453.787628 
	C195.577850,454.873932 195.306976,455.373505 195.036118,455.873047 
	C180.950546,452.397552 172.603958,442.357849 165.975571,430.392456 
	C164.229599,427.240692 162.670868,423.985168 161.232635,420.142273 
	C162.632233,419.335907 163.825333,419.164581 165.018433,418.993256 
M182.292480,441.440674 
	C182.011063,441.709106 181.729645,441.977570 181.448227,442.246033 
	C181.559402,442.362427 181.761169,442.586090 181.768707,442.579742 
	C182.065475,442.329193 182.344589,442.057739 182.292480,441.440674 
M166.480652,422.602264 
	C166.480652,422.602264 166.401215,422.475830 166.480652,422.602264 
z"/>
<path fill="#E5E5E5" opacity="1.000000" stroke="none" 
	d="
M132.263748,291.935364 
	C132.056778,290.233643 131.849792,288.531891 131.657730,286.952698 
	C133.849670,287.784546 136.012070,289.287872 136.744568,288.769775 
	C140.790710,285.907715 148.185593,288.931946 149.571518,281.551575 
	C152.599411,287.365570 164.129333,290.783112 167.728119,286.773621 
	C167.501923,288.247833 167.275726,289.722015 166.686737,291.688690 
	C164.951462,291.939697 163.578964,291.698242 162.206451,291.456787 
	C161.916153,291.295624 161.643448,291.053528 161.332794,290.985901 
	C158.532715,290.376740 155.725983,289.798126 152.921219,289.210571 
	C152.443451,292.186157 151.685104,295.151489 151.575745,298.140564 
	C151.486557,300.578430 152.290848,303.035583 152.480728,305.501007 
	C152.648773,307.682922 152.515930,309.888031 152.515930,312.755615 
	C155.329498,313.766541 158.765991,315.001251 162.202484,316.235992 
	C162.132385,316.584015 162.062286,316.932037 161.992188,317.280060 
	C153.754303,317.280060 145.516403,317.280060 137.154465,317.280060 
	C137.349670,316.638702 137.425171,316.095428 137.529480,316.089844 
	C147.420425,315.560272 147.188934,308.128021 147.699722,301.210449 
	C147.871124,298.889130 148.116043,296.566223 148.137436,294.242279 
	C148.183853,289.203064 145.919022,287.485443 141.318741,289.385406 
	C138.971848,290.354736 136.949738,292.110382 134.505493,293.207397 
	C133.574692,292.581238 132.919220,292.258301 132.263748,291.935364 
z"/>
<path fill="#EEEEEE" opacity="1.000000" stroke="none" 
	d="
M118.956512,247.221375 
	C116.952682,247.234833 115.360512,247.234833 113.768333,247.234833 
	C120.080078,244.597290 118.045403,239.344681 118.155617,235.013992 
	C118.291138,229.688873 118.025757,224.351868 118.220253,219.030487 
	C118.347237,215.556335 118.166412,212.551651 114.037323,210.937546 
	C118.642387,210.937546 123.247452,210.937546 127.852524,210.937546 
	C122.006752,212.799057 123.455551,217.527237 123.430305,221.563034 
	C123.384750,228.847336 123.417419,236.132111 123.417419,243.543213 
	C129.974274,244.605103 135.576111,244.988647 136.949234,236.117615 
	C137.408859,236.527008 137.868484,236.936417 138.328110,237.345810 
	C137.885910,240.440338 137.443710,243.534851 136.918839,247.207916 
	C130.892715,247.207916 125.130440,247.207916 118.956512,247.221375 
z"/>
<path fill="#F6F6F6" opacity="1.000000" stroke="none" 
	d="
M272.595306,83.467041 
	C259.697906,80.850182 248.030746,75.424515 237.094650,68.088142 
	C245.556946,62.285385 265.066711,68.180450 278.196350,84.478561 
	C276.088226,84.245476 274.341766,83.856262 272.595306,83.467041 
z"/>
<path fill="#F7F7F7" opacity="1.000000" stroke="none" 
	d="
M254.006393,452.995789 
	C264.414062,456.742462 275.013428,460.088013 283.866699,467.114105 
	C284.886353,467.923370 285.803528,468.861664 287.566254,470.466736 
	C278.764191,472.009033 271.340057,471.357605 264.953888,467.235962 
	C258.873230,463.311523 253.540039,458.228943 248.195374,453.341736 
	C250.343796,453.017212 252.175095,453.006500 254.006393,452.995789 
z"/>
<path fill="#F7F7F7" opacity="1.000000" stroke="none" 
	d="
M255.013672,223.045944 
	C255.013504,228.859314 255.183640,234.189011 254.950150,239.500977 
	C254.806778,242.762268 255.235291,245.274017 258.981995,246.581818 
	C254.499268,246.581818 250.016556,246.581818 243.701004,246.581818 
	C251.176834,244.632263 249.604309,239.858902 249.658707,235.758408 
	C249.727142,230.603333 249.651016,225.446381 249.710953,220.291107 
	C249.754654,216.532272 250.617142,212.425385 245.245895,210.841644 
	C249.805374,210.841644 254.364868,210.841644 258.924347,210.841644 
	C259.015564,211.121338 259.106781,211.401031 259.198029,211.680710 
	C257.879578,212.328522 256.561157,212.976318 255.013626,213.736679 
	C255.013626,216.592239 255.013626,219.573517 255.013672,223.045944 
z"/>
<path fill="#F6F6F6" opacity="1.000000" stroke="none" 
	d="
M262.798523,87.002823 
	C264.039520,87.054466 264.915771,86.952751 265.663788,87.215782 
	C266.171875,87.394455 266.500153,88.084564 267.493408,89.205933 
	C255.655655,95.535515 244.189819,101.666237 232.723984,107.796959 
	C232.301727,107.071465 231.879486,106.345970 231.457230,105.620476 
	C238.052643,93.662880 249.018204,88.477776 262.798523,87.002823 
z"/>
<path fill="#F4F4F4" opacity="1.000000" stroke="none" 
	d="
M258.226624,447.852173 
	C269.791748,441.337616 280.879425,433.787659 295.612915,430.645874 
	C287.249237,443.977295 275.910950,449.042389 261.261047,448.986328 
	C259.801666,448.324524 259.014130,448.088348 258.226624,447.852173 
z"/>
<path fill="#FAFAFA" opacity="1.000000" stroke="none" 
	d="
M186.599243,407.142273 
	C189.454102,408.006226 192.551193,410.162781 194.222122,409.358063 
	C197.733765,407.666840 200.423080,408.180847 203.592331,409.562561 
	C204.605667,410.004333 206.078888,409.391266 207.322174,409.262817 
	C208.789047,416.348297 208.055283,417.003540 201.516052,416.397278 
	C198.027969,416.073883 194.409790,416.374329 190.929398,416.908356 
	C183.498489,418.048523 177.551910,415.439789 175.999268,409.602142 
	C179.396500,408.512390 182.795959,407.802917 186.599243,407.142273 
z"/>
<path fill="#E5E5E5" opacity="1.000000" stroke="none" 
	d="
M222.322083,298.365356 
	C218.127640,300.065979 214.246719,301.557159 210.365814,303.048340 
	C210.106094,302.561737 209.846390,302.075104 209.586685,301.588501 
	C210.541168,300.991425 211.421967,300.154175 212.461761,299.835083 
	C221.284119,297.127686 229.101761,292.690002 235.725250,286.275208 
	C237.792969,284.272705 239.473282,281.870148 241.330933,279.650726 
	C242.053940,280.194061 242.776932,280.737396 243.499924,281.280701 
	C242.413574,282.689178 241.568604,284.417877 240.198837,285.450348 
	C234.429749,289.798706 228.504044,293.939270 222.322083,298.365356 
z"/>
<path fill="#AEAEAE" opacity="1.000000" stroke="none" 
	d="
M306.302795,91.008102 
	C306.827393,89.939507 307.630402,89.086662 307.706146,89.006218 
	C312.296356,90.892235 316.510162,92.623581 320.922211,94.108528 
	C322.910004,95.509216 324.621094,97.253456 326.509247,98.778481 
	C328.795227,100.624825 331.230957,102.285767 333.893707,104.241257 
	C332.028442,104.557159 330.798187,104.765518 329.287201,104.801834 
	C328.460663,103.846466 328.007233,102.481133 327.353607,102.377434 
	C323.960724,101.839149 320.804138,101.122559 319.110718,97.309990 
	C314.864166,95.091087 310.722687,93.157471 306.302795,91.008102 
z"/>
<path fill="#FAFAFA" opacity="1.000000" stroke="none" 
	d="
M189.054932,232.006607 
	C186.603912,232.006607 184.637802,232.006607 182.086548,232.006607 
	C182.014984,230.376419 181.949844,228.892639 181.866699,226.998779 
	C187.714478,226.998779 193.124313,226.899780 198.522949,227.101105 
	C199.373215,227.132828 200.172760,228.524231 200.995758,229.286957 
	C200.144669,230.191788 199.371918,231.766541 198.427963,231.876907 
	C195.500229,232.219177 192.507416,232.004883 189.054932,232.006607 
z"/>
<path fill="#E5E5E5" opacity="1.000000" stroke="none" 
	d="
M135.881744,306.112793 
	C138.100464,306.203491 139.859528,306.288666 142.215515,306.402771 
	C140.427292,311.504303 136.491089,312.227936 132.310974,311.975128 
	C128.763092,311.760590 125.456810,310.710876 125.169540,306.107300 
	C128.778473,306.107300 132.100296,306.107300 135.881744,306.112793 
z"/>
<path fill="#EEEEEE" opacity="1.000000" stroke="none" 
	d="
M160.001617,305.970886 
	C163.894867,306.062744 167.788101,306.154633 172.056091,305.965759 
	C172.430832,305.685059 172.477753,305.749451 172.477753,305.749451 
	C172.737045,306.985992 173.646317,308.683105 173.149643,309.383942 
	C170.036880,313.776489 159.284378,312.507507 157.333908,307.618256 
	C157.210648,307.309296 158.003372,306.634949 158.928619,306.153290 
	C159.658722,306.107635 159.830170,306.039276 160.001617,305.970886 
z"/>
<path fill="#0B0B0B" opacity="1.000000" stroke="none" 
	d="
M306.486969,283.975342 
	C306.807678,293.259613 306.872925,302.532562 306.954132,311.805389 
	C306.982941,315.091431 305.658752,314.935486 303.382050,313.051514 
	C303.699554,311.522949 304.754120,310.096344 304.799377,308.638397 
	C305.044586,300.736725 305.040314,292.827301 305.181274,284.454041 
	C305.572662,283.967194 305.905090,283.959381 306.486969,283.975342 
z"/>
<path fill="#EEEEEE" opacity="1.000000" stroke="none" 
	d="
M331.865295,312.551880 
	C331.368103,313.002472 330.954865,312.990112 330.245575,312.499359 
	C329.955841,309.532806 330.068390,307.039459 329.946442,304.557617 
	C329.690735,299.352295 329.311737,294.153015 328.983337,288.951263 
	C328.988892,287.863525 328.994446,286.775818 329.026306,285.280945 
	C330.015625,286.468384 331.744629,288.032043 331.810425,289.662750 
	C332.111542,297.127899 331.946716,304.611816 331.865295,312.551880 
z"/>
<path fill="#9D9D9D" opacity="1.000000" stroke="none" 
	d="
M257.841675,447.817291 
	C259.014130,448.088348 259.801666,448.324524 260.808960,448.915375 
	C260.891541,449.362244 260.753754,449.535461 260.617126,449.534607 
	C257.986450,449.517853 255.070801,448.834381 254.026871,452.720215 
	C252.175095,453.006500 250.343796,453.017212 248.052017,453.019775 
	C246.146240,451.828461 244.700958,450.645294 243.256500,449.467346 
	C247.990479,448.909180 252.723602,448.345795 257.841675,447.817291 
z"/>
<path fill="#DDDDDD" opacity="1.000000" stroke="none" 
	d="
M361.434387,340.406494 
	C359.579865,340.848297 357.580688,341.592651 356.439606,340.907593 
	C355.495453,340.340759 355.019196,337.948608 355.354584,336.623016 
	C355.629486,335.536499 357.319061,334.376129 358.550690,334.143250 
	C359.178558,334.024536 360.369781,335.771851 360.951965,336.864471 
	C361.450531,337.800110 361.444153,339.004761 361.434387,340.406494 
z"/>
<path fill="#E5E5E5" opacity="1.000000" stroke="none" 
	d="
M293.038635,338.798096 
	C292.914642,339.951691 292.914642,340.757385 292.914642,341.559631 
	C291.124847,341.559631 289.270355,341.559631 287.498322,341.559631 
	C287.084930,340.176544 286.613281,338.598480 286.126038,336.968292 
	C287.367004,336.150024 288.766998,335.226929 290.205994,334.278076 
	C292.116699,336.298035 293.325928,337.984283 293.038635,338.798096 
z"/>
<path fill="#E5E5E5" opacity="1.000000" stroke="none" 
	d="
M250.111008,339.432190 
	C248.445892,340.257202 246.845276,340.725769 245.244659,341.194336 
	C244.871674,339.545197 244.016449,337.804779 244.304810,336.280792 
	C244.480469,335.352478 246.418610,334.757660 247.565094,334.013062 
	C248.435242,335.700623 249.305374,337.388214 250.111008,339.432190 
z"/>
<path fill="#DDDDDD" opacity="1.000000" stroke="none" 
	d="
M225.239944,337.496246 
	C224.727905,338.923523 224.406403,340.021362 223.892044,341.777679 
	C223.254532,341.825104 221.727600,341.938721 219.331406,342.116974 
	C221.506454,339.362976 216.885925,335.157440 222.327972,334.135254 
	C223.143539,333.982025 224.385666,336.099670 225.239944,337.496246 
z"/>
<path fill="#E5E5E5" opacity="1.000000" stroke="none" 
	d="
M337.040649,338.796936 
	C335.579834,339.984314 334.123749,340.773529 332.667664,341.562714 
	C332.068634,340.024902 330.864655,338.402832 331.063263,336.976074 
	C331.220245,335.848511 333.100861,334.960907 334.216034,333.966736 
	C335.159149,335.444092 336.102264,336.921448 337.040649,338.796936 
z"/>
<path fill="#AEAEAE" opacity="1.000000" stroke="none" 
	d="
M365.964966,117.961288 
	C366.522308,117.984131 367.079681,118.006973 368.058960,118.002502 
	C368.689087,118.734367 368.897308,119.493546 369.135559,120.565216 
	C364.399353,120.526230 359.633087,120.174744 354.866821,119.823257 
	C354.843689,119.370880 354.820557,118.918503 354.797455,118.466125 
	C356.071594,118.215530 357.345764,117.964935 358.781006,117.404915 
	C359.634460,116.974632 360.326843,116.853775 360.992920,116.376999 
	C362.554871,116.464165 364.143188,116.907249 365.731384,117.770386 
	C365.809174,118.114059 365.887054,118.037674 365.964966,117.961288 
z"/>
<path fill="#DDDDDD" opacity="1.000000" stroke="none" 
	d="
M343.869446,340.111877 
	C344.095978,338.956268 344.189941,338.161652 344.296234,337.368713 
	C344.423889,336.416290 344.468842,334.674042 344.711182,334.645508 
	C346.019287,334.491394 347.488556,334.507935 348.660583,335.019348 
	C349.093384,335.208160 349.026001,336.928345 348.898193,337.912628 
	C348.759399,338.981140 348.284668,340.006042 347.669281,341.963196 
	C346.928040,341.682037 345.335175,341.077850 343.869446,340.111877 
z"/>
<path fill="#E5E5E5" opacity="1.000000" stroke="none" 
	d="
M319.934601,335.115936 
	C321.327759,334.863739 322.735718,334.946472 324.143738,335.029236 
	C324.025116,336.157196 323.885406,337.283478 323.794189,338.413666 
	C323.712555,339.424622 323.684357,340.439880 323.616913,341.760406 
	C322.425079,341.760406 320.853607,341.760406 319.073639,341.760406 
	C319.377136,339.573975 319.663269,337.512421 319.934601,335.115936 
z"/>
<path fill="#DDDDDD" opacity="1.000000" stroke="none" 
	d="
M167.860321,333.966492 
	C169.379379,334.059570 170.475403,334.150574 172.630783,334.329559 
	C171.048065,335.469421 170.270584,336.029388 169.588150,336.520874 
	C170.219559,336.860077 171.094376,337.330017 171.124237,337.346069 
	C170.783798,339.187500 170.568314,340.353058 170.248810,342.081238 
	C169.215515,341.791595 166.571777,341.429657 166.557388,340.982971 
	C166.482376,338.655334 167.076202,336.306091 167.860321,333.966492 
z"/>
<path fill="#FCFCFC" opacity="1.000000" stroke="none" 
	d="
M158.991547,414.480652 
	C157.038040,412.782440 155.084534,411.084229 152.361038,408.716644 
	C155.990295,408.977875 158.686050,409.171906 161.787094,410.049377 
	C162.251801,411.042297 162.311218,411.351868 162.271271,411.578552 
	C162.171906,411.495636 162.367477,411.326111 162.268188,411.682434 
	C162.110916,412.278503 162.052948,412.518188 161.654144,412.819458 
	C161.204056,413.424377 161.094833,413.967712 160.965942,414.830200 
	C160.268768,415.777618 159.591232,416.405884 158.913712,417.034119 
	C158.727463,416.669983 158.541214,416.305847 158.715271,415.628235 
	C159.137650,415.025452 159.109634,414.747406 158.991547,414.480652 
z"/>
<path fill="#9D9D9D" opacity="1.000000" stroke="none" 
	d="
M272.671692,83.812912 
	C274.341766,83.856262 276.088226,84.245476 278.135712,84.792770 
	C277.908081,85.938499 277.542114,87.607933 276.818909,87.780533 
	C274.965332,88.222893 272.952972,87.999939 270.597870,88.127167 
	C270.191620,88.211327 270.224335,88.249184 270.224335,88.249184 
	C271.065582,86.885712 271.906860,85.522240 272.671692,83.812912 
z"/>
<path fill="#404040" opacity="1.000000" stroke="none" 
	d="
M284.826843,313.939331 
	C283.684906,313.939331 282.542969,313.939331 280.927917,313.939331 
	C280.927917,304.504608 280.927917,295.296082 280.827698,285.640381 
	C280.914490,285.139526 281.101440,285.085846 281.577637,284.994019 
	C281.903046,292.990082 281.848816,301.026703 282.063629,309.056152 
	C282.099762,310.406494 283.299103,311.725739 284.492950,313.279755 
	C285.024902,313.500153 284.826843,313.939331 284.826843,313.939331 
z"/>
<path fill="#404040" opacity="1.000000" stroke="none" 
	d="
M138.036377,402.888733 
	C134.080032,400.995483 130.426895,398.923706 126.715736,396.547974 
	C131.733566,395.569122 134.978683,399.239380 138.834244,401.439636 
	C138.892181,401.472717 138.514145,402.269714 138.036377,402.888733 
z"/>
<path fill="#F5F5F5" opacity="1.000000" stroke="none" 
	d="
M162.370636,411.661438 
	C162.311218,411.351868 162.251801,411.042297 162.129242,410.264191 
	C162.504410,409.787323 162.942703,409.779022 163.690903,409.897156 
	C164.667755,412.042877 165.334702,414.062073 166.003326,416.457214 
	C165.603622,417.326172 165.202240,417.819214 164.909637,418.652771 
	C163.825333,419.164581 162.632233,419.335907 161.204803,419.783508 
	C160.358978,419.244507 159.747482,418.429260 159.024857,417.324097 
	C159.591232,416.405884 160.268768,415.777618 161.320145,414.843445 
	C162.109497,414.327728 162.525009,414.117920 162.986359,414.197937 
	C163.429657,414.808990 163.827103,415.130249 164.224518,415.451538 
	C164.307266,415.191742 164.508713,414.735748 164.454239,414.702759 
	C163.964096,414.406281 163.429031,414.184021 162.904327,413.662140 
	C162.599335,413.175507 162.297165,412.966705 161.994995,412.757904 
	C162.052948,412.518188 162.110916,412.278503 162.325684,411.714905 
	C162.482483,411.391052 162.370636,411.661438 162.370636,411.661438 
z"/>
<path fill="#404040" opacity="1.000000" stroke="none" 
	d="
M392.188782,288.313782 
	C391.828156,290.128143 391.512482,291.650879 391.270935,293.185303 
	C391.115814,294.170410 391.193604,295.215424 390.876648,296.133301 
	C390.808563,296.330444 388.941223,296.289429 388.847839,296.024719 
	C388.533783,295.134491 388.556061,294.087860 388.619476,293.112122 
	C388.691040,292.011108 388.946442,290.922058 389.029236,289.435974 
	C390.002380,288.111298 391.068176,287.178436 392.134003,286.245575 
	C392.177704,286.839447 392.221405,287.433289 392.188782,288.313782 
z"/>
<path fill="#AEAEAE" opacity="1.000000" stroke="none" 
	d="
M258.975891,333.842590 
	C264.035248,335.782837 261.540253,338.728424 261.000427,342.740601 
	C259.117493,339.221313 257.873871,336.896942 256.459259,334.252991 
	C256.877106,334.170685 257.712830,334.006012 258.975891,333.842590 
z"/>
<path fill="#0B0B0B" opacity="1.000000" stroke="none" 
	d="
M162.154602,291.859619 
	C163.578964,291.698242 164.951462,291.939697 166.644836,292.053345 
	C167.502563,292.498779 168.039398,293.072083 169.176529,294.286438 
	C166.213058,294.153961 162.814560,299.509674 162.154602,291.859619 
z"/>
<path fill="#404040" opacity="1.000000" stroke="none" 
	d="
M131.921143,292.076477 
	C132.919220,292.258301 133.574692,292.581238 134.176971,293.189026 
	C134.123764,296.603149 134.123764,299.732452 134.123764,304.257996 
	C133.103729,300.240479 132.451035,297.669739 131.399170,295.049500 
	C131.000000,295.000000 131.004456,295.003906 131.004456,295.003906 
	C131.195816,294.075134 131.387161,293.146362 131.921143,292.076477 
z"/>
<path fill="#F2F2F2" opacity="1.000000" stroke="none" 
	d="
M431.907440,173.653534 
	C434.138336,170.461975 435.001221,173.508804 436.369019,174.468979 
	C435.778595,174.981384 435.188141,175.493790 434.246735,176.019745 
	C433.257446,175.334015 432.619110,174.634735 431.907440,173.653534 
z"/>
<path fill="#404040" opacity="1.000000" stroke="none" 
	d="
M125.865524,394.735229 
	C124.713829,393.860626 123.568642,392.522827 122.168304,391.332458 
	C121.755257,391.214630 121.597359,390.949432 121.276237,390.250946 
	C121.504150,389.860992 121.895302,389.904266 122.819550,389.879608 
	C123.553749,389.575134 123.754845,389.338654 123.955940,389.102142 
	C124.555443,389.109222 125.154938,389.116272 125.900375,389.395264 
	C125.988205,391.202148 125.930115,392.737091 125.865524,394.735229 
z"/>
<path fill="#F2F2F2" opacity="1.000000" stroke="none" 
	d="
M424.915070,162.970215 
	C428.956421,164.995575 428.956421,164.995575 426.811707,167.064362 
	C426.402344,167.089890 426.429626,167.015594 426.796722,166.995773 
	C426.837708,166.875214 426.511597,166.774475 426.185486,166.673737 
	C424.846039,165.661987 423.506561,164.650238 422.048920,163.332672 
	C422.423218,163.012177 422.915741,162.997498 423.969421,162.971771 
	C424.530609,162.960709 424.915070,162.970215 424.915070,162.970215 
z"/>
<path fill="#F2F2F2" opacity="1.000000" stroke="none" 
	d="
M408.086121,150.766846 
	C408.713104,149.974747 409.593597,149.467987 410.885071,148.930084 
	C412.326172,150.001297 413.356232,151.103653 414.386322,152.206009 
	C414.148651,152.501160 413.910980,152.796310 413.673309,153.091446 
	C411.895416,152.411682 410.117523,151.731918 408.086121,150.766846 
z"/>
<path fill="#E5E5E5" opacity="1.000000" stroke="none" 
	d="
M99.011810,361.369446 
	C97.263885,364.135529 96.052742,362.895721 94.973717,360.479797 
	C94.976494,360.033813 95.155205,359.850586 95.155197,359.850586 
	C95.434639,359.548859 95.714081,359.247162 96.150970,358.674164 
	C97.169258,359.293884 98.030113,360.184906 99.011810,361.369446 
z"/>
<path fill="#F5F5F5" opacity="1.000000" stroke="none" 
	d="
M213.888138,442.661987 
	C212.054504,442.301361 210.099670,441.607758 208.070526,440.571960 
	C209.919785,440.929504 211.843353,441.629272 213.888138,442.661987 
z"/>
<path fill="#F2F2F2" opacity="1.000000" stroke="none" 
	d="
M434.097412,179.194733 
	C434.648407,179.991638 434.794830,180.822739 434.909851,181.979126 
	C433.359680,181.452713 431.840973,180.601013 429.394257,179.228912 
	C431.453125,179.228912 432.572998,179.228912 434.097412,179.194733 
z"/>
<path fill="#0B0B0B" opacity="1.000000" stroke="none" 
	d="
M160.046982,305.598969 
	C159.830170,306.039276 159.658722,306.107635 159.241776,306.048035 
	C158.996262,304.132385 158.996262,302.344666 158.996262,300.556946 
	C159.596100,300.604034 160.195938,300.651093 160.795776,300.698181 
	C160.561295,302.207794 160.326828,303.717438 160.046982,305.598969 
z"/>
<path fill="#FAFAFA" opacity="1.000000" stroke="none" 
	d="
M167.251984,416.869080 
	C168.088882,416.211792 169.180054,415.616516 170.271240,415.021240 
	C170.538940,415.727661 170.806656,416.434113 171.039307,417.454346 
	C170.497940,417.567780 169.991623,417.367462 169.152374,416.877808 
	C168.551361,416.661865 168.283295,416.735229 168.015213,416.808563 
	C167.845566,416.849426 167.675919,416.890259 167.251984,416.869080 
z"/>
<path fill="#F2F2F2" opacity="1.000000" stroke="none" 
	d="
M419.183655,135.012634 
	C418.628326,135.823166 417.973816,136.399918 416.870667,137.063965 
	C416.270416,136.619095 416.118774,136.086929 416.200653,135.184296 
	C416.666199,134.653641 416.784637,134.432617 416.983765,133.989532 
	C417.303375,133.715988 417.428680,133.603638 417.554016,133.491272 
	C418.064178,133.920471 418.574341,134.349686 419.183655,135.012634 
z"/>
<path fill="#E5E5E5" opacity="1.000000" stroke="none" 
	d="
M117.531769,381.883057 
	C116.983116,382.538147 116.543076,382.775726 115.859177,383.068542 
	C114.987053,382.194427 114.358788,381.265106 113.730522,380.335785 
	C114.086479,379.980927 114.442444,379.626038 114.798409,379.271179 
	C115.745735,380.002625 116.693054,380.734070 117.531769,381.883057 
z"/>
<path fill="#F8F8F8" opacity="1.000000" stroke="none" 
	d="
M419.602264,160.218689 
	C418.241669,159.487091 417.221680,158.415115 416.201660,157.343124 
	C416.549713,156.952026 416.897736,156.560928 417.245789,156.169815 
	C418.203430,156.967651 419.161072,157.765472 420.340424,158.852051 
	C420.355713,159.386642 420.149292,159.632462 419.602264,160.218689 
z"/>
<path fill="#F5F5F5" opacity="1.000000" stroke="none" 
	d="
M195.258942,456.020203 
	C195.306976,455.373505 195.577850,454.873932 195.959198,454.112244 
	C196.424255,454.643677 196.778809,455.437256 197.133377,456.230804 
	C196.582840,456.209656 196.032303,456.188507 195.258942,456.020203 
z"/>
<path fill="#F8F8F8" opacity="1.000000" stroke="none" 
	d="
M110.710220,373.880737 
	C111.585381,375.097626 112.114456,375.969666 112.643539,376.841675 
	C112.336861,377.122437 112.030182,377.403168 111.723495,377.683899 
	C110.734322,376.590271 109.745140,375.496643 108.755951,374.403015 
	C109.292023,374.113953 109.828087,373.824921 110.710220,373.880737 
z"/>
<path fill="#F5F5F5" opacity="1.000000" stroke="none" 
	d="
M215.946259,446.088562 
	C215.299423,445.291534 214.652588,444.494476 214.005524,443.343872 
	C214.499207,443.316528 214.993118,443.642761 215.744690,444.126678 
	C216.018188,444.653687 216.034012,445.023071 216.029953,445.701019 
	C216.010086,446.009613 215.946274,446.088562 215.946259,446.088562 
z"/>
<path fill="#F2F2F2" opacity="1.000000" stroke="none" 
	d="
M404.651825,141.113770 
	C404.325012,140.921112 404.375366,140.912766 404.351807,140.918427 
	C404.562836,141.823761 404.797424,142.723434 405.335693,143.822693 
	C405.639404,144.022278 405.433899,144.067154 405.328735,144.064301 
	C405.141937,143.143112 405.060303,142.224762 404.651825,141.113770 
z"/>
<path fill="#0B0B0B" opacity="1.000000" stroke="none" 
	d="
M161.954620,298.603516 
	C161.714188,298.209198 161.716019,297.816681 161.746246,297.426361 
	C161.747086,297.415375 162.051132,297.427917 162.213791,297.429504 
	C162.209473,297.821564 162.205154,298.213593 161.954620,298.603516 
z"/>
<path fill="#F2F2F2" opacity="1.000000" stroke="none" 
	d="
M416.025696,133.992264 
	C415.888824,133.506287 415.751953,133.020309 415.615051,132.534348 
	C416.149567,132.719696 416.684113,132.905060 417.386322,133.290848 
	C417.428680,133.603638 417.303375,133.715988 416.795807,133.939209 
	C416.413544,134.050095 416.025696,133.992264 416.025696,133.992264 
z"/>
<path fill="#F5F5F5" opacity="1.000000" stroke="none" 
	d="
M158.868164,414.606964 
	C159.109634,414.747406 159.137650,415.025452 159.035339,415.413574 
	C158.806946,415.321350 158.618820,415.130341 158.430695,414.939331 
	C158.535385,414.870636 158.640091,414.801971 158.868164,414.606964 
z"/>
<path fill="#FAFAFA" opacity="1.000000" stroke="none" 
	d="
M196.660248,404.888733 
	C196.366608,405.163544 195.735199,405.456268 195.050980,405.457520 
	C195.439606,405.079590 195.881042,404.993134 196.660248,404.888733 
z"/>
<path fill="#E5E5E5" opacity="1.000000" stroke="none" 
	d="
M105.267105,371.253906 
	C105.415726,370.479858 105.702682,369.994507 106.011871,369.214600 
	C106.323784,369.086700 106.613480,369.253326 106.946968,370.126678 
	C106.972618,371.442810 106.954475,372.052185 106.936333,372.661591 
	C106.426041,372.288574 105.915749,371.915558 105.267105,371.253906 
z"/>
<path fill="#F8F8F8" opacity="1.000000" stroke="none" 
	d="
M414.359589,155.109039 
	C415.234222,154.829254 416.326721,155.076782 417.419250,155.324326 
	C417.180237,155.778152 416.941223,156.231964 416.702179,156.685791 
	C415.993958,156.335983 415.285706,155.986176 414.359589,155.109039 
z"/>
<path fill="#F2F2F2" opacity="1.000000" stroke="none" 
	d="
M109.977142,399.316589 
	C110.022232,399.051056 110.232819,399.026276 110.761215,398.989258 
	C111.272903,399.177307 111.466789,399.377686 111.660667,399.578033 
	C111.154655,399.571167 110.648643,399.564270 109.977142,399.316589 
z"/>
<path fill="#0B0B0B" opacity="1.000000" stroke="none" 
	d="
M172.644501,305.434113 
	C172.477753,305.749451 172.430832,305.685059 172.424683,305.728668 
	C172.328064,305.189026 172.237595,304.605804 172.147125,304.022552 
	C172.297333,303.997986 172.447525,303.973389 172.597717,303.948822 
	C172.668900,304.338806 172.740082,304.728790 172.644501,305.434113 
z"/>
<path fill="#F8F8F8" opacity="1.000000" stroke="none" 
	d="
M107.413948,372.707611 
	C106.954475,372.052185 106.972618,371.442810 107.007233,370.377869 
	C107.312988,370.866119 107.602280,371.809875 107.413948,372.707611 
z"/>
<path fill="#0B0B0B" opacity="1.000000" stroke="none" 
	d="
M168.989014,297.227600 
	C169.105576,297.403595 169.048706,297.581512 168.991837,297.759460 
	C168.933075,297.582825 168.874329,297.406219 168.989014,297.227600 
z"/>
<path fill="#F8F8F8" opacity="1.000000" stroke="none" 
	d="
M426.234253,166.729340 
	C426.511597,166.774475 426.837708,166.875214 426.800079,166.956329 
	C426.436340,166.936707 426.282990,166.784958 426.234253,166.729340 
z"/>
<path fill="#EEEEEE" opacity="1.000000" stroke="none" 
	d="
M331.276672,316.944885 
	C331.072205,316.641541 331.215576,316.408508 331.608185,316.113525 
	C331.709351,316.329468 331.631714,316.650665 331.276672,316.944885 
z"/>
<path fill="#9D9D9D" opacity="1.000000" stroke="none" 
	d="
M270.173157,88.194565 
	C269.993805,88.166260 269.832947,88.154724 269.672089,88.143196 
	C269.763031,88.135170 269.853973,88.127136 270.084625,88.184143 
	C270.224335,88.249184 270.191620,88.211327 270.173157,88.194565 
z"/>
<path fill="#F5F5F5" opacity="1.000000" stroke="none" 
	d="
M230.905624,447.695312 
	C230.568314,447.855133 230.332474,447.641968 230.078308,447.128113 
	C230.307877,447.067413 230.623581,447.232361 230.905624,447.695312 
z"/>
<path fill="#404040" opacity="1.000000" stroke="none" 
	d="
M130.998764,294.998474 
	C130.886536,295.010101 130.775543,295.023285 130.834503,295.020203 
	C131.004456,295.003906 131.000000,295.000000 130.998764,294.998474 
z"/>
<path fill="#404040" opacity="1.000000" stroke="none" 
	d="
M136.517029,295.506683 
	C136.478439,295.528534 136.555603,295.484833 136.517029,295.506683 
z"/>
<path fill="#F7F7F7" opacity="1.000000" stroke="none" 
	d="
M392.842285,133.042419 
	C392.857178,132.997208 392.906921,133.124405 392.906921,133.124405 
	C392.906921,133.124405 392.891022,132.951187 392.833679,133.059601 
	C392.776337,133.167999 392.827362,133.087616 392.842285,133.042419 
z"/>
<path fill="#FCFCFC" opacity="1.000000" stroke="none" 
	d="
M168.252472,416.895569 
	C168.283295,416.735229 168.551361,416.661865 168.902740,416.737671 
	C168.820602,416.918732 168.655167,416.950623 168.252472,416.895569 
z"/>
<path fill="#0B0B0B" opacity="1.000000" stroke="none" 
	d="
M170.461823,301.439819 
	C170.527649,301.398743 170.395981,301.480896 170.461823,301.439819 
z"/>
<path fill="#F8F8F8" opacity="1.000000" stroke="none" 
	d="
M415.945251,134.246918 
	C416.025696,133.992264 416.413544,134.050095 416.601501,134.100433 
	C416.784637,134.432617 416.666199,134.653641 416.258942,134.901276 
	C416.010712,134.826324 415.937744,134.663940 415.945251,134.246918 
z"/>
<path fill="#F5F5F5" opacity="1.000000" stroke="none" 
	d="
M216.049500,445.977600 
	C216.195465,446.124786 216.302002,446.304016 216.408554,446.483215 
	C216.301834,446.445770 216.195114,446.408356 216.017334,446.229736 
	C215.946274,446.088562 216.010086,446.009613 216.049500,445.977600 
z"/>
<path fill="#010101" opacity="1.000000" stroke="none" 
	d="
M123.690186,389.102203 
	C123.754845,389.338654 123.553749,389.575134 123.114342,389.896881 
	C123.058823,389.688843 123.241631,389.395538 123.690186,389.102203 
z"/>
<path fill="#EEEEEE" opacity="1.000000" stroke="none" 
	d="
M290.293060,312.148834 
	C290.254211,311.556549 290.392303,311.134888 290.530396,310.713196 
	C290.648285,310.826660 290.883026,310.966095 290.864532,311.049225 
	C290.768585,311.480530 290.608032,311.897491 290.293060,312.148834 
z"/>
<path fill="#EEEEEE" opacity="1.000000" stroke="none" 
	d="
M285.042664,313.891998 
	C284.826843,313.939331 285.024902,313.500153 284.924438,313.281189 
	C284.968842,313.322998 285.113647,313.583832 285.042664,313.891998 
z"/>
<path fill="#AEAEAE" opacity="1.000000" stroke="none" 
	d="
M329.000275,289.424255 
	C329.311737,294.153015 329.690735,299.352295 329.946442,304.557617 
	C330.068390,307.039459 329.955841,309.532806 329.935791,312.485077 
	C329.610443,307.258057 329.268768,301.568298 329.003632,295.875000 
	C328.911072,293.886963 329.007263,291.890106 329.000275,289.424255 
z"/>
<path fill="#EEEEEE" opacity="1.000000" stroke="none" 
	d="
M311.692261,311.077576 
	C311.291107,311.403687 310.894775,311.453278 310.498474,311.502869 
	C310.507538,311.225281 310.516571,310.947723 310.525635,310.670135 
	C310.916138,310.713776 311.306610,310.757446 311.692261,311.077576 
z"/>
<path fill="#EEEEEE" opacity="1.000000" stroke="none" 
	d="
M320.644318,312.098267 
	C320.359528,311.814270 320.241669,311.390900 320.183929,310.959442 
	C320.173706,310.883057 320.413940,310.773132 320.538513,310.678711 
	C320.636261,311.104492 320.734009,311.530304 320.644318,312.098267 
z"/>
<path fill="#EEEEEE" opacity="1.000000" stroke="none" 
	d="
M323.338989,312.299927 
	C323.354126,312.009857 323.507721,311.850800 323.661377,311.691711 
	C323.600067,311.938110 323.538757,312.184509 323.338989,312.299927 
z"/>
<path fill="#FAFAFA" opacity="1.000000" stroke="none" 
	d="
M227.011444,407.757202 
	C226.901291,407.590302 226.955276,407.421875 227.009262,407.253479 
	C227.064697,407.420868 227.120132,407.588287 227.011444,407.757202 
z"/>
<path fill="#E5E5E5" opacity="1.000000" stroke="none" 
	d="
M94.893433,360.131165 
	C93.950638,359.976044 93.090904,359.723541 92.231178,359.471039 
	C92.365189,359.096344 92.499191,358.721649 92.633202,358.346924 
	C93.406601,358.633362 94.180000,358.919800 95.054306,359.528412 
	C95.155205,359.850586 94.976494,360.033813 94.893433,360.131165 
z"/>
<path fill="#E5E5E5" opacity="1.000000" stroke="none" 
	d="
M102.399216,365.724976 
	C101.778412,366.292236 101.095711,366.845551 100.413010,367.398895 
	C100.183556,367.010986 99.954109,366.623077 99.724663,366.235168 
	C100.374985,366.083801 101.025299,365.932465 101.999603,365.683014 
	C102.323593,365.584900 102.337318,365.711060 102.399216,365.724976 
z"/>
<path fill="#010101" opacity="1.000000" stroke="none" 
	d="
M425.004913,162.559296 
	C424.915070,162.970215 424.530609,162.960709 424.338440,162.952911 
	C424.140656,162.266708 424.135010,161.588333 424.129364,160.909943 
	C424.451172,161.322754 424.772980,161.735565 425.004913,162.559296 
z"/>
<path fill="#F2F2F2" opacity="1.000000" stroke="none" 
	d="
M430.444946,168.532211 
	C430.408234,168.471283 430.481689,168.593140 430.444946,168.532211 
z"/>
<path fill="#F5F5F5" opacity="1.000000" stroke="none" 
	d="
M182.459229,441.614868 
	C182.344589,442.057739 182.065475,442.329193 181.768707,442.579742 
	C181.761169,442.586090 181.559402,442.362427 181.448212,442.246033 
	C181.729645,441.977570 182.011063,441.709106 182.459229,441.614868 
z"/>
<path fill="#F5F5F5" opacity="1.000000" stroke="none" 
	d="
M166.440933,422.539062 
	C166.401215,422.475830 166.480652,422.602264 166.440933,422.539062 
z"/>
<path fill="#F6F6F6" opacity="1.000000" stroke="none" 
	d="
M365.979858,117.976669 
	C365.887054,118.037674 365.809174,118.114059 365.880371,118.103577 
	C366.029510,118.016701 365.994781,117.992035 365.979858,117.976669 
z"/>
<path fill="#0B0B0B" opacity="1.000000" stroke="none" 
	d="
M162.940506,413.908142 
	C162.525009,414.117920 162.109497,414.327728 161.339813,414.524292 
	C161.094833,413.967712 161.204056,413.424377 161.654144,412.819458 
	C162.297165,412.966705 162.599335,413.175507 162.944473,413.687500 
	C162.987442,413.990692 162.940506,413.908142 162.940506,413.908142 
z"/>
<path fill="#0B0B0B" opacity="1.000000" stroke="none" 
	d="
M162.271271,411.578552 
	C162.370636,411.661438 162.482483,411.391052 162.424988,411.358582 
	C162.367477,411.326111 162.171906,411.495636 162.271271,411.578552 
z"/>
<path fill="#FAFAFA" opacity="1.000000" stroke="none" 
	d="
M162.947296,413.965332 
	C163.429031,414.184021 163.964096,414.406281 164.454239,414.702759 
	C164.508713,414.735748 164.307266,415.191742 164.224518,415.451538 
	C163.827103,415.130249 163.429657,414.808990 162.986359,414.197937 
	C162.940506,413.908142 162.987442,413.990692 162.947296,413.965332 
z"/>
</svg>