<?xml version="1.0" standalone="no"?>
<!DOCTYPE svg PUBLIC "-//W3C//DTD SVG 20010904//EN"
 "http://www.w3.org/TR/2001/REC-SVG-20010904/DTD/svg10.dtd">
<svg version="1.0" xmlns="http://www.w3.org/2000/svg"
 width="1024.000000pt" height="1024.000000pt" viewBox="0 0 1024.000000 1024.000000"
 preserveAspectRatio="xMidYMid meet">

<g transform="translate(0.000000,1024.000000) scale(0.100000,-0.100000)"
fill="#000000" stroke="none">
<path d="M2480 8000 l0 -400 240 0 240 0 0 -40 0 -40 80 0 80 0 0 -2304 0
-2305 -52 -3 c-49 -3 -54 -6 -68 -35 -14 -31 -18 -33 -72 -33 -31 0 -60 -4
-63 -10 -3 -5 -43 -10 -88 -10 -103 0 -126 -6 -133 -36 -6 -22 -11 -24 -69
-24 -44 0 -68 -5 -79 -16 -14 -14 -16 -67 -16 -442 0 -252 4 -433 10 -442 8
-13 229 -15 1869 -18 l1859 -2 11 31 c6 18 11 50 11 73 l0 41 100 -3 c79 -3
100 -6 100 -18 0 -33 38 -54 99 -54 56 0 59 -2 66 -27 9 -36 33 -52 78 -53 33
0 37 -3 37 -24 0 -44 33 -56 150 -56 129 0 145 4 160 41 9 21 21 30 46 35 38
7 52 20 57 55 3 20 11 25 50 29 51 6 63 14 69 45 2 16 13 21 51 26 46 5 67 19
67 47 0 8 17 12 50 12 41 0 56 5 75 25 14 13 25 29 25 35 0 6 23 10 54 10 45
0 58 4 70 22 9 12 16 30 16 40 0 12 10 18 37 20 58 5 64 25 61 220 -3 185 -7
195 -66 200 -19 1 -32 8 -32 16 0 7 -11 24 -25 37 -18 19 -35 25 -68 25 -40 0
-46 3 -57 30 -12 30 -26 35 -105 42 -22 2 -31 9 -33 25 -4 30 -39 53 -78 53
-26 0 -36 7 -53 35 -18 32 -24 35 -66 35 -36 0 -45 3 -45 18 -1 30 -26 52 -59
52 -19 0 -31 5 -31 14 0 7 -11 25 -25 40 l-26 28 -125 -4 c-133 -3 -144 -7
-144 -55 0 -20 -5 -23 -38 -23 -45 0 -79 -22 -84 -53 -3 -20 -10 -23 -70 -27
-70 -5 -84 -12 -90 -45 -3 -18 -12 -20 -99 -23 l-96 -3 -5 52 c-4 35 -12 57
-24 66 -14 11 -170 13 -836 13 l-818 0 0 2280 0 2280 80 0 80 0 0 40 0 40 240
0 240 0 0 400 0 400 -1360 0 -1360 0 0 -400z m2640 35 l0 -286 -37 3 c-37 3
-38 2 -41 -34 l-3 -38 -200 0 -199 0 0 -40 0 -40 -80 0 -80 0 0 -2360 0 -2360
840 0 840 0 0 -480 0 -480 -1800 0 -1800 0 0 380 0 380 80 0 c79 0 80 0 80 25
0 25 1 25 89 25 66 0 93 4 105 15 10 11 36 15 85 15 l71 0 0 35 0 35 65 0 65
0 0 2385 0 2385 -80 0 -80 0 0 40 0 40 -205 0 -205 0 0 40 c0 39 -1 40 -35 40
l-35 0 0 280 0 280 1280 0 1280 0 0 -285z m1840 -5100 l0 -35 50 0 50 0 0 -35
0 -35 60 0 60 0 0 -40 0 -40 55 0 55 0 0 -35 0 -35 75 0 75 0 0 -40 0 -40 70
0 70 0 0 -35 0 -35 50 0 c49 0 50 -1 50 -30 l0 -30 -360 0 -360 0 0 50 0 50
-115 0 -115 0 0 -160 0 -160 115 0 115 0 0 50 0 50 360 0 360 0 0 -40 0 -40
-50 0 -50 0 0 -35 0 -35 -70 0 -70 0 0 -35 0 -35 -75 0 -75 0 0 -35 0 -35 -55
0 -55 0 0 -35 0 -35 -60 0 -60 0 0 -40 0 -40 -49 0 -50 0 -3 -37 -3 -38 -77
-3 -78 -3 0 41 0 40 -60 0 -60 0 0 40 0 40 -80 0 -80 0 0 35 0 35 -120 0 -120
0 0 345 0 345 120 0 120 0 0 35 0 35 80 0 80 0 0 35 0 35 60 0 60 0 0 40 0 40
80 0 80 0 0 -35z"/>
<path d="M3840 7520 l0 -80 -40 0 -40 0 0 40 0 40 -80 0 -80 0 0 -40 0 -40
-80 0 -80 0 0 -40 0 -40 55 0 55 0 0 -40 c0 -36 3 -40 25 -40 25 0 25 -1 25
-80 l0 -80 -80 0 -80 0 0 -40 0 -40 40 0 40 0 0 -40 0 -40 80 0 80 0 0 40 0
40 40 0 40 0 0 40 0 40 -40 0 -40 0 0 80 0 80 -40 0 -40 0 0 40 0 40 120 0
120 0 0 -280 0 -280 -80 0 -80 0 0 -40 0 -40 200 0 200 0 0 40 0 40 -80 0 -80
0 0 280 0 280 100 0 100 0 0 -40 c0 -33 3 -40 20 -40 18 0 20 -7 20 -80 l0
-80 -85 0 -85 0 0 -40 c0 -38 2 -40 30 -40 28 0 30 -2 30 -40 l0 -40 95 0 95
0 0 40 0 40 40 0 40 0 0 40 c0 40 0 40 -40 40 l-39 0 -3 78 -3 77 -37 3 c-37
3 -38 4 -38 43 0 39 0 39 40 39 l40 0 0 40 0 40 -40 0 -40 0 0 40 0 40 -120 0
-120 0 0 40 0 40 -40 0 -40 0 0 -80z"/>
<path d="M4073 7240 c0 -25 2 -35 4 -22 2 12 2 32 0 45 -2 12 -4 2 -4 -23z"/>
<path d="M3360 6040 l0 -440 480 0 480 0 0 40 0 40 -80 0 -80 0 0 200 0 200
-40 0 -40 0 0 -200 0 -200 -40 0 -40 0 0 120 0 120 -40 0 -40 0 0 -120 0 -120
-80 0 -79 0 -3 158 -3 157 -37 3 -38 3 0 -160 0 -161 -40 0 -40 0 0 80 0 80
-40 0 -40 0 0 -80 0 -80 -40 0 -40 0 0 400 0 400 -40 0 -40 0 0 -440z"/>
<path d="M4080 6440 l0 -40 40 0 40 0 0 -40 0 -40 -40 0 -40 0 0 -40 0 -40
-40 0 -40 0 0 -40 0 -40 -40 0 -40 0 0 -40 0 -40 -40 0 -40 0 0 40 0 40 -40 0
-40 0 0 40 0 40 -40 0 -40 0 0 -40 0 -40 -40 0 -40 0 0 -40 0 -40 -40 0 -40 0
0 -40 0 -40 40 0 40 0 0 40 0 40 40 0 40 0 0 40 0 40 40 0 40 0 0 -40 0 -40
40 0 40 0 0 -40 0 -40 40 0 40 0 0 40 0 40 40 0 40 0 0 40 0 40 40 0 40 0 0
40 0 40 40 0 40 0 0 40 0 40 40 0 40 0 0 -40 0 -40 40 0 40 0 0 120 0 120
-120 0 -120 0 0 -40z"/>
<path d="M3440 5325 c0 -33 -2 -35 -35 -35 l-35 0 0 -325 0 -325 189 0 c189 0
190 0 193 -22 3 -21 9 -23 84 -26 80 -3 82 -2 88 23 l6 25 190 0 190 0 0 325
0 325 -35 0 c-33 0 -35 2 -35 35 l0 35 -160 0 c-153 0 -160 -1 -160 -20 0 -13
-7 -20 -20 -20 -11 0 -20 -7 -20 -15 0 -11 -11 -15 -40 -15 -33 0 -40 3 -40
20 0 13 -7 20 -20 20 -11 0 -20 7 -20 15 0 13 -24 15 -160 15 l-160 0 0 -35z
m320 -60 c0 -18 5 -25 20 -25 20 0 20 -7 20 -280 0 -273 0 -280 -20 -280 -13
0 -20 7 -20 20 0 19 -7 20 -160 20 l-160 0 0 285 0 285 160 0 160 0 0 -25z
m480 -260 l0 -285 -160 0 c-153 0 -160 -1 -160 -20 0 -13 -7 -20 -20 -20 -20
0 -20 7 -20 280 0 273 0 280 20 280 15 0 20 7 20 25 l0 25 160 0 160 0 0 -285z"/>
<path d="M3640 4185 l0 -55 -45 0 c-45 0 -45 0 -45 -34 0 -34 0 -34 -40 -29
l-40 6 0 -47 0 -46 -55 0 -55 0 0 -40 0 -40 50 0 50 0 0 -55 0 -55 -50 0 -50
0 0 -40 0 -40 53 0 52 0 -1 -52 -2 -53 -51 -3 -51 -3 0 -40 0 -39 55 0 55 0 0
-40 0 -40 40 0 c38 0 40 -2 40 -30 0 -29 2 -30 45 -30 l45 0 0 -60 0 -60 40 0
40 0 0 60 0 60 50 0 50 0 0 -60 0 -60 40 0 40 0 0 60 0 60 55 0 55 0 0 -60 0
-60 40 0 40 0 0 60 0 60 35 0 c32 0 35 2 35 30 0 28 2 30 40 30 l40 0 0 40 0
40 50 0 50 0 0 40 0 40 -50 0 -50 0 0 55 0 55 50 0 50 0 0 40 0 40 -50 0 -50
0 0 55 0 55 50 0 50 0 0 40 0 40 -50 0 -50 0 0 45 0 45 -40 0 c-38 0 -40 2
-40 30 0 28 -3 30 -35 30 l-35 0 0 55 0 55 -40 0 -40 0 0 -55 0 -55 -55 0 -55
0 0 55 0 55 -41 0 -41 0 4 -55 5 -55 -54 0 -53 0 0 55 0 55 -40 0 -40 0 0 -55z
m470 -430 l0 -245 -260 0 -260 0 0 245 0 245 260 0 260 0 0 -245z"/>
<path d="M3690 3755 l0 -145 155 0 155 0 0 145 0 145 -155 0 -155 0 0 -145z"/>
<path d="M3140 1558 c-20 -21 -20 -32 -20 -535 l0 -514 25 -24 24 -25 369 0
c457 0 422 -13 422 156 0 109 -1 116 -25 139 -24 25 -24 25 -240 25 l-215 0 0
380 c0 464 19 420 -181 420 -129 0 -140 -1 -159 -22z m260 -458 l0 -400 240 0
240 0 0 -80 0 -80 -340 0 -340 0 0 480 0 480 100 0 100 0 0 -400z"/>
<path d="M4506 1559 c-25 -20 -26 -23 -26 -133 0 -106 2 -115 25 -140 19 -21
33 -26 70 -26 l45 0 0 -240 0 -240 -48 0 c-81 0 -86 -9 -90 -153 l-4 -124 28
-22 c26 -20 36 -21 291 -21 226 0 267 2 288 16 14 9 25 24 26 33 0 11 3 9 9
-6 15 -36 43 -43 175 -43 120 0 127 1 150 25 l25 24 0 221 c0 213 1 220 20
220 14 0 20 -7 20 -23 0 -31 29 -57 63 -57 24 0 27 -4 27 -34 0 -32 2 -35 40
-41 33 -6 40 -11 40 -30 0 -26 33 -55 62 -55 16 0 18 -11 18 -102 1 -146 -4
-142 175 -146 l144 -3 21 33 c19 32 20 48 20 534 l0 501 -25 27 -25 28 -139
-4 c-98 -2 -143 -7 -154 -17 -14 -11 -17 -36 -17 -164 0 -145 -1 -150 -18
-134 -10 10 -32 17 -49 17 -26 0 -31 5 -36 29 -5 22 -14 32 -42 41 -19 6 -35
17 -35 24 0 27 -41 66 -69 66 -26 0 -29 3 -34 47 -4 35 -12 53 -32 70 -24 21
-35 23 -150 23 -73 0 -135 -5 -150 -12 l-25 -11 -1 -426 c-1 -234 -4 -416 -6
-404 -6 33 -41 53 -90 53 l-43 0 0 240 0 240 39 0 c24 0 48 8 65 21 25 20 26
23 26 138 0 172 21 161 -312 161 -253 0 -266 -1 -292 -21z m524 -139 l0 -80
-65 0 -65 0 0 -320 0 -320 65 0 65 0 0 -80 0 -80 -235 0 -235 0 0 80 0 80 70
0 70 0 0 320 0 320 -70 0 -70 0 0 80 0 80 235 0 235 0 0 -80z m360 10 l0 -70
55 0 55 0 0 -45 0 -45 44 0 c44 0 45 0 48 -37 3 -37 4 -38 45 -41 42 -3 42 -3
45 -45 3 -41 4 -42 41 -45 35 -3 37 -5 37 -38 0 -33 1 -34 40 -34 l40 0 0 235
0 235 100 0 100 0 0 -480 0 -480 -100 0 -100 0 0 125 0 125 -40 0 -40 0 0 40
c0 40 0 40 -39 40 -37 0 -39 1 -45 40 -6 39 -7 40 -46 40 -40 0 -40 0 -40 40
l0 40 -45 0 -45 0 0 59 c0 58 -1 60 -27 63 -16 2 -40 1 -55 -1 l-28 -3 0 -304
0 -304 -100 0 -100 0 0 480 0 480 100 0 100 0 0 -70z"/>
<path d="M6175 1573 c-44 -12 -44 -11 -45 -555 l0 -517 22 -21 c20 -18 35 -20
160 -20 185 0 178 -8 178 185 0 123 2 145 15 145 9 0 18 -12 22 -30 7 -37 26
-50 72 -50 15 0 21 -8 23 -32 2 -27 9 -35 36 -43 21 -6 32 -15 32 -27 0 -28
37 -58 70 -58 27 0 30 -3 30 -29 0 -49 29 -61 146 -61 139 0 160 5 173 43 16
43 14 238 -2 259 -7 9 -25 20 -40 23 -19 5 -27 14 -27 29 0 31 -11 43 -48 53
-22 6 -37 18 -50 43 -12 24 -25 36 -42 38 -33 4 -73 82 -53 101 7 6 13 21 13
31 0 15 7 20 28 20 37 0 48 10 56 45 5 24 12 31 33 33 29 2 63 33 63 56 0 9
11 18 25 22 46 11 55 38 55 164 0 63 -4 120 -8 126 -17 26 -56 34 -161 34
-120 0 -156 -10 -165 -46 -4 -14 -14 -24 -25 -24 -23 0 -51 -31 -51 -57 0 -14
-10 -22 -37 -29 -29 -7 -41 -17 -52 -40 -9 -21 -24 -35 -45 -41 -23 -6 -34
-17 -42 -43 -6 -19 -19 -36 -28 -38 -14 -3 -16 12 -16 133 0 131 -1 137 -25
160 -23 24 -29 25 -147 24 -68 -1 -132 -4 -143 -6z m237 -270 l3 -198 55 0 55
0 3 38 c3 36 4 37 43 37 39 0 39 0 39 40 l0 40 40 0 40 0 0 40 0 40 50 0 50 0
0 45 c0 45 0 45 35 45 33 0 35 2 35 35 l0 35 90 0 90 0 0 -80 0 -80 -40 0 -40
0 0 -40 0 -40 -45 0 -45 0 0 -40 0 -40 -45 0 -45 0 0 -40 0 -40 -45 0 -45 0 0
-69 c0 -74 6 -80 68 -81 19 0 22 -5 22 -40 l0 -40 45 0 45 0 0 -40 0 -40 45 0
45 0 0 -45 0 -45 40 0 40 0 0 -80 0 -80 -90 0 -90 0 0 45 0 45 -39 0 c-39 0
-40 1 -43 38 -3 36 -4 37 -45 40 -43 3 -43 3 -43 43 0 39 0 39 -40 39 l-40 0
0 40 c0 40 0 40 -39 40 -39 0 -40 1 -43 38 l-3 37 -57 3 -58 3 0 -206 0 -205
-100 0 -100 0 0 480 0 480 100 0 100 0 2 -197z"/>
<path d="M3920 1110 c-18 -18 -20 -33 -20 -140 0 -115 1 -122 25 -145 l24 -25
281 0 281 0 25 25 c25 25 26 28 22 150 -3 110 -5 126 -23 139 -17 13 -67 15
-307 16 -275 0 -289 -1 -308 -20z m560 -145 l0 -85 -250 0 -250 0 0 85 0 85
250 0 250 0 0 -85z"/>
</g>
</svg>
